<svg id="Capa_1" enable-background="new 0 0 512.018 512.018" height="512" viewBox="0 0 512.018 512.018" width="512" xmlns="http://www.w3.org/2000/svg"><g><g><path d="m109.53 179.232h-44.129c-5.523 0-10 4.477-10 10v44.129c0 5.523 4.477 10 10 10h44.129c5.523 0 10-4.477 10-10v-44.129c0-5.523-4.477-10-10-10zm-10 44.13h-24.129v-24.129h24.129z"/><path d="m109.53 277.046h-44.129c-5.523 0-10 4.477-10 10v44.129c0 5.523 4.477 10 10 10h44.129c5.523 0 10-4.477 10-10v-44.129c0-5.523-4.477-10-10-10zm-10 44.129h-24.129v-24.129h24.129z"/><path d="m196.381 243.362c5.523 0 10-4.477 10-10v-44.129c0-5.523-4.477-10-10-10h-44.129c-5.523 0-10 4.477-10 10v44.129c0 5.523 4.477 10 10 10zm-34.13-44.13h24.129v24.129h-24.129z"/><path d="m239.102 243.362h44.129c5.522 0 10-4.477 10-10v-44.129c0-5.523-4.478-10-10-10h-44.129c-5.523 0-10 4.477-10 10v44.129c0 5.523 4.477 10 10 10zm10-44.13h24.129v24.129h-24.129z"/><path d="m293.231 331.175v-44.129c0-5.523-4.478-10-10-10h-44.129c-5.523 0-10 4.477-10 10v44.129c0 5.523 4.477 10 10 10h44.129c5.523 0 10-4.477 10-10zm-20-10h-24.129v-24.129h24.129z"/><path d="m325.953 243.362h44.129c5.522 0 10-4.477 10-10v-44.129c0-5.523-4.478-10-10-10h-44.129c-5.522 0-10 4.477-10 10v44.129c0 5.523 4.478 10 10 10zm10-44.13h24.129v24.129h-24.129z"/><path d="m507.423 461.152-1.232-2.134c-2.763-4.782-8.878-6.422-13.661-3.658-4.782 2.762-6.42 8.878-3.657 13.661l1.231 2.132c5.266 9.125-1.538 20.838-12.031 20.838h-211.107c-10.494 0-17.295-11.719-12.031-20.838l105.553-182.823c2.512-4.349 7.009-6.946 12.031-6.946s9.52 2.597 12.03 6.946l60.449 104.702c2.762 4.783 8.875 6.423 13.66 3.66 4.783-2.761 6.422-8.877 3.66-13.66l-24.979-43.266v-288.472c0-5.523-4.478-10-10-10h-57.044v-8.373c0-18.138-14.756-32.894-32.894-32.894s-32.895 14.756-32.895 32.894v8.373h-54.029v-8.373c0-18.138-14.756-32.894-32.894-32.894s-32.893 14.756-32.893 32.894v8.373h-54.029v-8.373c0-18.138-14.756-32.894-32.895-32.894-18.138 0-32.894 14.756-32.894 32.894v8.373h-54.872c-5.523 0-10 4.477-10 10v344.465c0 5.523 4.477 10 10 10h259.597l-31.982 55.395c-12.851 22.259 3.75 50.838 29.351 50.838h211.106c12.252 0 23.225-6.334 29.351-16.945 6.127-10.612 6.127-23.282 0-33.895zm-182.915-428.231c0-7.11 5.784-12.894 12.895-12.894 7.109 0 12.894 5.784 12.894 12.894l-.001 37.162c0 7.005-5.884 12.898-12.893 12.898-7.02 0-12.895-5.88-12.895-12.898zm-119.818 0c0-7.11 5.784-12.894 12.894-12.894s12.894 5.784 12.894 12.894v37.166c0 7.11-5.784 12.894-12.894 12.894s-12.894-5.784-12.894-12.894zm-106.922-12.894c7.11 0 12.894 5.784 12.894 12.894v37.166c0 7.017-5.878 12.894-12.895 12.894-7.012 0-12.892-5.9-12.892-12.898v-18.789c0-.016-.002-18.373-.002-18.373 0-7.11 5.785-12.894 12.895-12.894zm-77.768 125.521h30.551c5.523 0 10-4.477 10-10s-4.477-10-10-10h-30.551v-64.254h44.873v8.792c0 17.889 14.98 32.895 32.891 32.895 17.912 0 32.898-14.987 32.898-32.898v-8.789h54.025v8.789c0 18.14 14.758 32.898 32.898 32.898s32.898-14.758 32.898-32.898v-8.789h54.024v8.789c.026 13.318 8.328 25.599 20.702 30.555 3.87 1.55 8.028 2.343 12.197 2.343 17.907 0 32.89-14.996 32.89-32.895v-8.792h47.044v64.254h-275.592c-5.523 0-10 4.477-10 10s4.477 10 10 10h275.592v159.571l-15.468-26.793c-6.127-10.61-17.101-16.945-29.352-16.945-.001 0 0 0-.001 0-12.252 0-23.226 6.335-29.354 16.946l-62.028 107.432h-261.137z"/><path d="m196.999 285.284-25.271 27.665-8.921-9.078c-3.87-3.939-10.202-3.994-14.142-.123-3.939 3.871-3.994 10.202-.123 14.142l16.318 16.605c1.882 1.915 4.452 2.991 7.132 2.991.061 0 .122 0 .183-.001 2.746-.05 5.349-1.227 7.201-3.254l32.389-35.457c3.725-4.078 3.439-10.403-.639-14.128-4.077-3.725-10.402-3.439-14.127.638z"/><path d="m95.49 145.549c4.316 0 8.23-2.891 9.531-6.994 1.33-4.194-.327-8.874-3.981-11.316-7.321-4.893-17.241 1.868-15.309 10.476 1.013 4.512 5.125 7.834 9.759 7.834z"/><path d="m383.52 343.521c0-5.523-4.478-10-10-10s-10 4.477-10 10v79.517c0 5.523 4.478 10 10 10s10-4.477 10-10z"/><path d="m381.83 451.979c-2.987-4.558-9.352-5.776-13.86-2.77-4.534 3.023-5.774 9.336-2.77 13.87 3.014 4.55 9.346 5.761 13.869 2.76 4.542-3.013 5.771-9.337 2.761-13.86z"/><path d="m485.685 422.954c-2.987-4.558-9.352-5.776-13.86-2.77-4.534 3.023-5.774 9.336-2.77 13.87 3.014 4.55 9.346 5.761 13.869 2.76 4.542-3.013 5.771-9.337 2.761-13.86z"/></g></g></svg>