<?xml version="1.0" encoding="UTF-8" standalone="no"?>
<!-- Created with Inkscape (http://www.inkscape.org/) -->

<svg
   version="1.1"
   id="svg3186"
   xml:space="preserve"
   width="682.66669"
   height="682.66669"
   viewBox="0 0 682.66669 682.66669"
   xmlns="http://www.w3.org/2000/svg"
   xmlns:svg="http://www.w3.org/2000/svg"><defs
     id="defs3190"><clipPath
       clipPathUnits="userSpaceOnUse"
       id="clipPath3200"><path
         d="M 0,512 H 512 V 0 H 0 Z"
         id="path3198" /></clipPath></defs><g
     id="g3192"
     transform="matrix(1.3333333,0,0,-1.3333333,0,682.66667)"><g
       id="g3194"><g
         id="g3196"
         clip-path="url(#clipPath3200)"><g
           id="g3202"
           transform="translate(325.0332,130.8486)"><path
             d="m 0,0 -80.683,-102.861 c -5.812,-7.41 -16.53,-8.722 -23.947,-2.932 l -24.54,19.157"
             style="fill:none;stroke:#060606;stroke-width:15;stroke-linecap:round;stroke-linejoin:round;stroke-miterlimit:10;stroke-dasharray:none;stroke-opacity:1"
             id="path3204" /></g><g
           id="g3206"
           transform="translate(164.3818,303.4497)"><path
             d="m 0,0 152.568,194.507 c 5.812,7.41 16.53,8.722 23.948,2.932 L 333.244,75.088 c 7.428,-5.798 8.732,-16.521 2.911,-23.942 L 300.775,6.041"
             style="fill:none;stroke:#060606;stroke-width:15;stroke-linecap:round;stroke-linejoin:round;stroke-miterlimit:10;stroke-dasharray:none;stroke-opacity:1"
             id="path3208" /></g><g
           id="g3210"
           transform="translate(294.0918,390.291)"><path
             d="m 0,0 66.45,44.489 c 7.827,5.24 18.418,3.155 23.662,-4.659 l 110.725,-164.993 c 5.249,-7.823 3.151,-18.423 -4.685,-23.67 l -345.133,-231.069 c -7.828,-5.24 -18.417,-3.155 -23.662,4.659 l -110.724,164.993 c -5.25,7.823 -3.153,18.423 4.683,23.67 l 243.843,163.254"
             style="fill:none;stroke:#060606;stroke-width:15;stroke-linecap:round;stroke-linejoin:round;stroke-miterlimit:10;stroke-dasharray:none;stroke-opacity:1"
             id="path3212" /></g><g
           id="g3214"
           transform="translate(235.4199,133.335)"><path
             d="m 0,0 c -22.939,4.467 -44.164,17.702 -58.206,38.626 -27.996,41.717 -16.837,98.2 24.923,126.158 C 8.477,192.743 65.024,181.589 93.02,139.873 121.015,98.156 109.856,41.674 68.097,13.715 59.98,8.281 51.306,4.325 42.391,1.783"
             style="fill:none;stroke:#060606;stroke-width:15;stroke-linecap:round;stroke-linejoin:round;stroke-miterlimit:10;stroke-dasharray:none;stroke-opacity:1"
             id="path3216" /></g><g
           id="g3218"
           transform="translate(62.6387,235.332)"><path
             d="m 0,0 c 22.741,-33.888 13.678,-79.77 -20.245,-102.481 l -31.684,47.212 c -5.243,7.813 -3.139,18.4 4.698,23.647 z"
             style="fill:none;stroke:#060606;stroke-width:15;stroke-linecap:round;stroke-linejoin:round;stroke-miterlimit:10;stroke-dasharray:none;stroke-opacity:1"
             id="path3220" /></g><g
           id="g3222"
           transform="translate(89.8516,62.1318)"><path
             d="M 0,0 C 33.995,22.759 79.949,13.797 102.643,-20.019 L 55.281,-51.728 c -7.838,-5.247 -18.441,-3.168 -23.684,4.645 z"
             style="fill:none;stroke:#060606;stroke-width:15;stroke-linecap:round;stroke-linejoin:round;stroke-miterlimit:10;stroke-dasharray:none;stroke-opacity:1"
             id="path3224" /></g><g
           id="g3226"
           transform="translate(443.0361,209.8047)"><path
             d="M 0,0 C -22.741,33.888 -13.678,79.77 20.245,102.481 L 51.929,55.269 c 5.243,-7.813 3.139,-18.4 -4.698,-23.647 z"
             style="fill:none;stroke:#060606;stroke-width:15;stroke-linecap:round;stroke-linejoin:round;stroke-miterlimit:10;stroke-dasharray:none;stroke-opacity:1"
             id="path3228" /></g><g
           id="g3230"
           transform="translate(415.8232,383.0049)"><path
             d="m 0,0 c -33.995,-22.759 -79.949,-13.797 -102.643,20.019 l 47.362,31.709 c 7.838,5.247 18.441,3.168 23.684,-4.645 z"
             style="fill:none;stroke:#060606;stroke-width:15;stroke-linecap:round;stroke-linejoin:round;stroke-miterlimit:10;stroke-dasharray:none;stroke-opacity:1"
             id="path3232" /></g><g
           id="g3234"
           transform="translate(367.042,299.0527)"><path
             d="M 0,0 35.307,23.638"
             style="fill:none;stroke:#060606;stroke-width:15;stroke-linecap:round;stroke-linejoin:round;stroke-miterlimit:10;stroke-dasharray:none;stroke-opacity:1"
             id="path3236" /></g><g
           id="g3238"
           transform="translate(103.3047,122.4785)"><path
             d="M 0,0 35.306,23.638"
             style="fill:none;stroke:#060606;stroke-width:15;stroke-linecap:round;stroke-linejoin:round;stroke-miterlimit:10;stroke-dasharray:none;stroke-opacity:1"
             id="path3240" /></g><g
           id="g3242"
           transform="translate(244.3262,269.4443)"><path
             d="m 0,0 c 0,0 -14.571,2.252 -25.662,-11.218 -10.184,-12.368 -1.677,-31.884 11.537,-32.858 7.588,-0.559 17.223,1.255 29.7,4.455 27.927,7.163 40.886,-30.178 18.014,-45.713 -8.926,-6.062 -13.499,-8.301 -24.821,-8.438"
             style="fill:none;stroke:#060606;stroke-width:15;stroke-linecap:round;stroke-linejoin:round;stroke-miterlimit:10;stroke-dasharray:none;stroke-opacity:1"
             id="path3244" /></g><g
           id="g3246"
           transform="translate(217.2471,274.5132)"><path
             d="M 0,0 68.445,-101.993"
             style="fill:none;stroke:#060606;stroke-width:15;stroke-linecap:round;stroke-linejoin:round;stroke-miterlimit:10;stroke-dasharray:none;stroke-opacity:1"
             id="path3248" /></g></g></g></g></svg>
