<?xml version="1.0" encoding="UTF-8"?>
<svg xmlns="http://www.w3.org/2000/svg" xmlns:xlink="http://www.w3.org/1999/xlink" version="1.1" id="Capa_1" x="0px" y="0px" viewBox="0 0 512 512" style="enable-background:new 0 0 512 512;" xml:space="preserve" width="512" height="512">
<g>
	<path style="fill:none;stroke:#000000;stroke-width:15;stroke-linecap:round;stroke-linejoin:round;stroke-miterlimit:10;" d="&#10;&#9;&#9;M114.577,357.016H62.049c-4.463,0-8.081,3.618-8.081,8.081v14.142c0,4.463,3.618,8.081,8.081,8.081h52.528"/>
	<path style="fill:none;stroke:#000000;stroke-width:15;stroke-linecap:round;stroke-linejoin:round;stroke-miterlimit:10;" d="&#10;&#9;&#9;M114.577,175.187H55.988c-4.463,0-8.081,3.618-8.081,8.081v14.142c0,4.463,3.618,8.081,8.081,8.081h58.589"/>
	
		<line style="fill:none;stroke:#000000;stroke-width:15;stroke-linecap:round;stroke-linejoin:round;stroke-miterlimit:10;" x1="114.577" y1="235.797" x2="37.805" y2="235.797"/>
	
		<line style="fill:none;stroke:#000000;stroke-width:15;stroke-linecap:round;stroke-linejoin:round;stroke-miterlimit:10;" x1="114.577" y1="276.203" x2="37.805" y2="276.203"/>
	
		<line style="fill:none;stroke:#000000;stroke-width:15;stroke-linecap:round;stroke-linejoin:round;stroke-miterlimit:10;" x1="114.577" y1="316.61" x2="37.805" y2="316.61"/>
	<path style="fill:none;stroke:#000000;stroke-width:15;stroke-linecap:round;stroke-linejoin:round;stroke-miterlimit:10;" d="&#10;&#9;&#9;M7.5,183.56v234.07c0,11.15,9.05,20.2,20.2,20.2h86.88"/>
	<path style="fill:none;stroke:#000000;stroke-width:15;stroke-linecap:round;stroke-linejoin:round;stroke-miterlimit:10;" d="&#10;&#9;&#9;M7.5,148.56V94.37c0-11.15,9.05-20.2,20.2-20.2h86.88"/>
	<path style="fill:none;stroke:#000000;stroke-width:15;stroke-linecap:round;stroke-linejoin:round;stroke-miterlimit:10;" d="&#10;&#9;&#9;M397.423,357.016h52.528c4.463,0,8.081,3.618,8.081,8.081v14.142c0,4.463-3.618,8.081-8.081,8.081h-52.528"/>
	
		<polygon style="fill:none;stroke:#000000;stroke-width:15;stroke-linecap:round;stroke-linejoin:round;stroke-miterlimit:10;" points="&#10;&#9;&#9;273.509,98.415 256,74.171 238.491,98.415 205.492,84.272 215.594,144.882 296.406,144.882 306.508,84.272 &#9;"/>
	
		<line style="fill:none;stroke:#000000;stroke-width:15;stroke-linecap:round;stroke-linejoin:round;stroke-miterlimit:10;" x1="205.492" y1="144.882" x2="306.508" y2="144.882"/>
	
		<line style="fill:none;stroke:#000000;stroke-width:15;stroke-linecap:round;stroke-linejoin:round;stroke-miterlimit:10;" x1="256" y1="119.176" x2="256" y2="119.176"/>
	<path style="fill:none;stroke:#000000;stroke-width:15;stroke-linecap:round;stroke-linejoin:round;stroke-miterlimit:10;" d="&#10;&#9;&#9;M397.423,175.187h58.589c4.463,0,8.081,3.618,8.081,8.081v14.142c0,4.463-3.618,8.081-8.081,8.081h-58.589"/>
	<path style="fill:none;stroke:#000000;stroke-width:15;stroke-linecap:round;stroke-linejoin:round;stroke-miterlimit:10;" d="&#10;&#9;&#9;M144.882,197.411v-14.142c0-4.463,3.618-8.081,8.081-8.081h206.073c4.463,0,8.081,3.618,8.081,8.081v14.142&#10;&#9;&#9;c0,4.463-3.618,8.081-8.081,8.081H152.963C148.5,205.492,144.882,201.874,144.882,197.411z"/>
	
		<line style="fill:none;stroke:#000000;stroke-width:15;stroke-linecap:round;stroke-linejoin:round;stroke-miterlimit:10;" x1="346.915" y1="245.898" x2="225.695" y2="245.898"/>
	
		<line style="fill:none;stroke:#000000;stroke-width:15;stroke-linecap:round;stroke-linejoin:round;stroke-miterlimit:10;" x1="195.39" y1="245.898" x2="165.085" y2="245.898"/>
	
		<line style="fill:none;stroke:#000000;stroke-width:15;stroke-linecap:round;stroke-linejoin:round;stroke-miterlimit:10;" x1="346.915" y1="286.305" x2="225.695" y2="286.305"/>
	
		<line style="fill:none;stroke:#000000;stroke-width:15;stroke-linecap:round;stroke-linejoin:round;stroke-miterlimit:10;" x1="195.39" y1="286.305" x2="165.085" y2="286.305"/>
	
		<line style="fill:none;stroke:#000000;stroke-width:15;stroke-linecap:round;stroke-linejoin:round;stroke-miterlimit:10;" x1="346.915" y1="326.711" x2="225.695" y2="326.711"/>
	
		<line style="fill:none;stroke:#000000;stroke-width:15;stroke-linecap:round;stroke-linejoin:round;stroke-miterlimit:10;" x1="195.39" y1="326.711" x2="165.085" y2="326.711"/>
	
		<line style="fill:none;stroke:#000000;stroke-width:15;stroke-linecap:round;stroke-linejoin:round;stroke-miterlimit:10;" x1="346.915" y1="367.118" x2="225.695" y2="367.118"/>
	
		<line style="fill:none;stroke:#000000;stroke-width:15;stroke-linecap:round;stroke-linejoin:round;stroke-miterlimit:10;" x1="474.195" y1="235.797" x2="397.423" y2="235.797"/>
	
		<line style="fill:none;stroke:#000000;stroke-width:15;stroke-linecap:round;stroke-linejoin:round;stroke-miterlimit:10;" x1="474.195" y1="276.203" x2="397.423" y2="276.203"/>
	
		<line style="fill:none;stroke:#000000;stroke-width:15;stroke-linecap:round;stroke-linejoin:round;stroke-miterlimit:10;" x1="474.195" y1="316.61" x2="397.423" y2="316.61"/>
	
		<line style="fill:none;stroke:#000000;stroke-width:15;stroke-linecap:round;stroke-linejoin:round;stroke-miterlimit:10;" x1="195.39" y1="367.118" x2="165.085" y2="367.118"/>
	<path style="fill:none;stroke:#000000;stroke-width:15;stroke-linecap:round;stroke-linejoin:round;stroke-miterlimit:10;" d="&#10;&#9;&#9;M195.39,429.748v-14.142c0-4.463,3.618-8.081,8.081-8.081h105.057c4.463,0,8.081,3.618,8.081,8.081v14.142&#10;&#9;&#9;c0,4.463-3.618,8.081-8.081,8.081H203.472C199.008,437.829,195.39,434.211,195.39,429.748z"/>
	<path style="fill:none;stroke:#000000;stroke-width:15;stroke-linecap:round;stroke-linejoin:round;stroke-miterlimit:10;" d="&#10;&#9;&#9;M200.93,33.76h176.29c11.16,0,20.2,9.05,20.2,20.21v404.06c0,11.16-9.04,20.21-20.2,20.21H134.78c-11.16,0-20.2-9.05-20.2-20.21&#10;&#9;&#9;V53.97c0-11.16,9.04-20.21,20.2-20.21h31.15"/>
	<path style="fill:none;stroke:#000000;stroke-width:15;stroke-linecap:round;stroke-linejoin:round;stroke-miterlimit:10;" d="&#10;&#9;&#9;M504.5,369.71v47.92c0,11.15-9.05,20.2-20.2,20.2h-86.88"/>
	<path style="fill:none;stroke:#000000;stroke-width:15;stroke-linecap:round;stroke-linejoin:round;stroke-miterlimit:10;" d="&#10;&#9;&#9;M397.42,74.17h86.88c11.15,0,20.2,9.05,20.2,20.2v240.34"/>
</g>















</svg>
