<?xml version="1.0" encoding="UTF-8"?>
<svg xmlns="http://www.w3.org/2000/svg" id="Layer_1" data-name="Layer 1" viewBox="0 0 64 64" width="512" height="512"><path d="M57,11a4,4,0,0,0-4-4,3.95,3.95,0,0,0-1.97.54A30.986,30.986,0,0,0,16.5,5.15l1,1.731A28.934,28.934,0,0,1,49.574,8.967,3.959,3.959,0,0,0,49,11a4,4,0,0,0,8,0Zm-6,0a2,2,0,1,1,2,2A2,2,0,0,1,51,11Z"/><path d="M58.85,16.5l-1.731,1a28.934,28.934,0,0,1-2.086,32.073A3.959,3.959,0,0,0,53,49a4,4,0,1,0,4,4,3.95,3.95,0,0,0-.54-1.97A30.986,30.986,0,0,0,58.85,16.5ZM53,55a2,2,0,1,1,2-2A2,2,0,0,1,53,55Z"/><path d="M32,61a29.007,29.007,0,0,1-17.574-5.967A3.959,3.959,0,0,0,15,53a4,4,0,1,0-4,4,3.95,3.95,0,0,0,1.97-.54A30.986,30.986,0,0,0,47.5,58.85l-1-1.731A28.974,28.974,0,0,1,32,61ZM11,55a2,2,0,1,1,2-2A2,2,0,0,1,11,55Z"/><path d="M8.967,14.426A3.959,3.959,0,0,0,11,15a4,4,0,1,0-4-4,3.95,3.95,0,0,0,.54,1.97A30.986,30.986,0,0,0,5.15,47.5l1.731-1A28.934,28.934,0,0,1,8.967,14.426ZM11,9a2,2,0,1,1-2,2A2,2,0,0,1,11,9Z"/><path d="M52,27H42V22a1,1,0,0,0,1-1V17a1,1,0,0,0-1-1H22a1,1,0,0,0-1,1v4a1,1,0,0,0,1,1v5H12a1,1,0,0,0-1,1v4a1,1,0,0,0,1,1V45a1,1,0,0,0,1,1h9a1,1,0,0,0,1,1H41a1,1,0,0,0,1-1h9a1,1,0,0,0,1-1V33a1,1,0,0,0,1-1V28A1,1,0,0,0,52,27ZM22,44H14V33h8Zm0-13H13V29h9ZM34.5,45h-5V40h5ZM40,45H36.5V39a1,1,0,0,0-1-1h-7a1,1,0,0,0-1,1v6H24V22H40Zm1-25H23V18H41Zm9,24H42V33h8Zm1-13H42V29h9Z"/><path d="M27,29h3a1,1,0,0,0,1-1V25a1,1,0,0,0-1-1H27a1,1,0,0,0-1,1v3A1,1,0,0,0,27,29Zm1-3h1v1H28Z"/><path d="M34,29h3a1,1,0,0,0,1-1V25a1,1,0,0,0-1-1H34a1,1,0,0,0-1,1v3A1,1,0,0,0,34,29Zm1-3h1v1H35Z"/><path d="M27,36h3a1,1,0,0,0,1-1V32a1,1,0,0,0-1-1H27a1,1,0,0,0-1,1v3A1,1,0,0,0,27,36Zm1-3h1v1H28Z"/><path d="M34,36h3a1,1,0,0,0,1-1V32a1,1,0,0,0-1-1H34a1,1,0,0,0-1,1v3A1,1,0,0,0,34,36Zm1-3h1v1H35Z"/></svg>
