<svg id="Layer_1" height="512" viewBox="0 0 64 64" width="512" xmlns="http://www.w3.org/2000/svg"><g><path d="m33.491 34.657c-.058 0-.116-.005-.175-.016-.57-.101-1.154-.151-1.735-.151-.552 0-1-.447-1-1s.448-1 1-1c.698 0 1.399.062 2.083.183.544.096.907.614.811 1.158-.085.485-.507.826-.984.826z"/></g><g><path d="m33.49 33.419c-.552 0-1-.447-1-1 0-.698.062-1.399.182-2.083.096-.544.617-.912 1.159-.811.544.096.907.614.811 1.158-.101.57-.151 1.153-.151 1.735-.001.554-.448 1.001-1.001 1.001z"/></g><g><path d="m32.419 31.51c-.698 0-1.398-.062-2.083-.183-.544-.096-.907-.614-.811-1.158s.617-.91 1.159-.811c.57.101 1.154.151 1.735.151.552 0 1 .447 1 1s-.448 1.001-1 1.001z"/></g><g><path d="m30.344 34.49c-.057 0-.116-.005-.174-.015-.544-.097-.907-.614-.812-1.158.101-.573.152-1.157.152-1.736 0-.553.448-1 1-1s1 .447 1 1c0 .695-.061 1.396-.182 2.082-.086.485-.508.827-.984.827z"/></g><g><path d="m51.849 26.884c-.31 0-.615-.144-.811-.413l-.064-.089c-.324-.447-.225-1.072.223-1.396.445-.325 1.073-.225 1.396.223l.064.089c.324.447.225 1.072-.223 1.396-.176.128-.382.19-.585.19z"/></g><g><path d="m25.796 13.217c-.308 0-.611-.142-.808-.408-.326-.445-.23-1.071.215-1.398l.088-.064c.446-.328 1.071-.229 1.398.215.326.445.23 1.071-.215 1.398l-.088.064c-.178.13-.385.193-.59.193z"/></g><g><path d="m12.218 39.205c-.309 0-.612-.142-.809-.41l-.065-.089c-.326-.445-.229-1.071.218-1.397.445-.325 1.071-.229 1.397.218l.065.089c.326.445.229 1.071-.218 1.397-.177.13-.384.192-.588.192z"/></g><g><path d="m38.117 52.848c-.31 0-.615-.144-.811-.413-.324-.447-.225-1.072.223-1.396l.089-.064c.446-.326 1.072-.224 1.396.223s.225 1.072-.223 1.396l-.089.064c-.176.128-.382.19-.585.19z"/></g><g><path d="m52 23.5c-.553 0-1-.447-1-1s.447-1 1-1c.306 0 .532-.091.692-.277.153-.179.242-.442.242-.723 0-.167-.045-1-.935-1-.553 0-1-.447-1-1s.447-1 1-1c1.927 0 2.935 1.509 2.935 3 0 .763-.258 1.482-.726 2.027-.538.627-1.323.973-2.208.973z"/></g><g><path d="m39.051 15.5c-.451 0-.86-.307-.971-.765-.13-.536.199-1.077.736-1.207 1.712-.415 2.977-1.872 3.148-3.626.055-.55.537-.949 1.093-.897.549.054.951.543.897 1.093-.254 2.6-2.13 4.759-4.668 5.374-.078.019-.157.028-.235.028z"/></g><g><path d="m48.191 19.5c-.553 0-1-.447-1-1s.447-1 1-1c.306 0 .532-.091.692-.277.153-.179.242-.442.242-.723 0-.167-.045-1-.935-1-.553 0-1-.447-1-1s.447-1 1-1c1.927 0 2.935 1.509 2.935 3 0 .763-.258 1.482-.726 2.027-.538.627-1.323.973-2.208.973z"/></g><g><path d="m50.259 27.5c-.553 0-1-.447-1-1s.447-1 1-1c.306 0 .532-.091.692-.277.153-.179.242-.442.242-.723 0-.167-.045-1-.935-1-.553 0-1-.447-1-1s.447-1 1-1c1.927 0 2.935 1.509 2.935 3 0 .763-.258 1.482-.726 2.027-.538.627-1.323.973-2.208.973z"/></g><g><path d="m44.084 31.51c-.51 0-.945-.388-.994-.905-.053-.55.351-1.038.9-1.09.855-.082.86-.89.854-1.051-.008-.161-.09-.964-.95-.964-.553 0-1-.447-1-1s.447-1 1-1c1.846 0 2.88 1.443 2.947 2.868.068 1.427-.824 2.962-2.661 3.137-.033.004-.065.005-.096.005z"/></g><g><path d="m50.259 27.5h-11.308c-.553 0-1-.447-1-1s.447-1 1-1h11.308c.553 0 1 .447 1 1s-.447 1-1 1z"/></g><g><path d="m52 23.5h-11.915c-.553 0-1-.447-1-1s.447-1 1-1h11.915c.553 0 1 .447 1 1s-.447 1-1 1z"/></g><g><path d="m52 19.5h-12.981c-.553 0-1-.447-1-1s.447-1 1-1h12.981c.553 0 1 .447 1 1s-.447 1-1 1z"/></g><g><path d="m48.191 15.5h-13.015c-.553 0-1-.447-1-1s.447-1 1-1h13.016c.553 0 1 .447 1 1s-.448 1-1.001 1z"/></g><g><path d="m25.884 13.152c-.307 0-.609-.141-.805-.405-.328-.444-.234-1.07.21-1.399 2.079-1.536 4.544-2.348 7.13-2.348.552 0 1 .447 1 1s-.448 1-1 1c-2.155 0-4.209.677-5.941 1.957-.179.132-.388.195-.594.195z"/></g><g><path d="m44.085 31.51h-11.666c-.552 0-1-.447-1-1s.448-1 1-1h11.666c.553 0 1 .447 1 1s-.447 1-1 1z"/></g><g><path d="m42.96 11h-10.541c-.552 0-1-.447-1-1s.448-1 1-1h10.541c.553 0 1 .447 1 1s-.447 1-1 1z"/></g><g><path d="m22.5 13c-.552 0-1-.447-1-1 0-.89-.833-.935-1-.935s-1 .045-1 .935c0 .553-.448 1-1 1s-1-.447-1-1c0-3.854 6-3.854 6 0 0 .553-.448 1-1 1z"/></g><g><path d="m14.499 25.948c-.451 0-.86-.307-.971-.765-.416-1.712-1.873-2.977-3.625-3.148-.55-.054-.952-.543-.898-1.093.053-.55.536-.948 1.092-.897 2.599.254 4.759 2.13 5.375 4.668.13.536-.199 1.077-.736 1.207-.079.019-.159.028-.237.028z"/></g><g><path d="m18.5 16.809c-.552 0-1-.447-1-1 0-.89-.833-.935-1-.935s-1 .045-1 .935c0 .553-.448 1-1 1s-1-.447-1-1c0-3.854 6-3.854 6 0 0 .552-.448 1-1 1z"/></g><g><path d="m26.5 14.741c-.552 0-1-.447-1-1 0-.89-.833-.935-1-.935s-1 .045-1 .935c0 .553-.448 1-1 1s-1-.447-1-1c0-3.854 6-3.854 6 0 0 .553-.448 1-1 1z"/></g><g><path d="m26.5 21.106c-.552 0-1-.447-1-1 0-1.845 1.443-2.879 2.868-2.947 1.421-.053 2.961.824 3.137 2.661.052.55-.351 1.038-.9 1.09-.55.06-1.038-.351-1.091-.9-.082-.855-.893-.868-1.051-.853-.161.008-.963.089-.963.949 0 .553-.448 1-1 1z"/></g><g><path d="m26.5 26.049c-.552 0-1-.447-1-1v-11.308c0-.553.448-1 1-1s1 .447 1 1v11.308c0 .553-.448 1-1 1z"/></g><g><path d="m22.5 24.915c-.552 0-1-.447-1-1v-11.915c0-.553.448-1 1-1s1 .447 1 1v11.915c0 .553-.448 1-1 1z"/></g><g><path d="m18.5 25.981c-.552 0-1-.447-1-1v-12.981c0-.553.448-1 1-1s1 .447 1 1v12.981c0 .553-.448 1-1 1z"/></g><g><path d="m14.5 29.824c-.552 0-1-.447-1-1v-13.015c0-.553.448-1 1-1s1 .447 1 1v13.016c0 .552-.448.999-1 .999z"/></g><g><path d="m12.153 39.116c-.307 0-.609-.141-.805-.406-1.515-2.049-2.348-4.581-2.348-7.129 0-.553.448-1 1-1s1 .447 1 1c0 2.124.695 4.233 1.956 5.941.328.443.234 1.07-.21 1.398-.179.133-.387.196-.593.196z"/></g><g><path d="m30.51 32.581c-.552 0-1-.447-1-1v-11.666c0-.553.448-1 1-1s1 .447 1 1v11.666c0 .553-.448 1-1 1z"/></g><g><path d="m10 32.581c-.552 0-1-.447-1-1v-10.541c0-.553.448-1 1-1s1 .447 1 1v10.541c0 .553-.448 1-1 1z"/></g><g><path d="m12 46.5c-1.926 0-2.935-1.509-2.935-3 0-.763.258-1.482.726-2.027.54-.627 1.324-.973 2.209-.973.552 0 1 .447 1 1s-.448 1-1 1c-.306 0-.532.091-.692.277-.154.179-.242.442-.242.723 0 .167.045 1 .935 1 .552 0 1 .447 1 1s-.449 1-1.001 1z"/></g><g><path d="m21.041 55c-.032 0-.065-.002-.098-.005-.549-.054-.952-.542-.898-1.092.253-2.6 2.129-4.76 4.667-5.375.536-.135 1.077.198 1.208.736.13.536-.199 1.077-.736 1.207-1.712.415-2.978 1.872-3.148 3.625-.051.517-.486.904-.995.904z"/></g><g><path d="m15.808 50.5c-1.927 0-2.935-1.509-2.935-3 0-.763.257-1.483.725-2.027.54-.627 1.324-.973 2.209-.973.552 0 1 .447 1 1s-.448 1-1 1c-.306 0-.533.091-.693.277-.154.179-.242.442-.242.723 0 .167.045 1 .935 1 .552 0 1 .447 1 1s-.447 1-.999 1z"/></g><g><path d="m13.741 42.5c-1.927 0-2.935-1.509-2.935-3 0-.763.257-1.483.725-2.027.54-.627 1.324-.973 2.209-.973.552 0 1 .447 1 1s-.448 1-1 1c-.306 0-.533.091-.693.277-.154.179-.242.442-.242.723 0 .167.045 1 .935 1 .552 0 1 .447 1 1s-.447 1-.999 1z"/></g><g><path d="m20.106 38.5c-1.845 0-2.879-1.442-2.947-2.867-.068-1.427.824-2.963 2.661-3.138.546-.07 1.038.351 1.091.9.052.55-.351 1.038-.9 1.09-.856.082-.861.891-.854 1.052s.089.963.949.963c.552 0 1 .447 1 1s-.448 1-1 1z"/></g><g><path d="m25.049 38.5h-11.308c-.552 0-1-.447-1-1s.448-1 1-1h11.308c.552 0 1 .447 1 1s-.448 1-1 1z"/></g><g><path d="m23.915 42.5h-11.915c-.552 0-1-.447-1-1s.448-1 1-1h11.915c.552 0 1 .447 1 1s-.448 1-1 1z"/></g><g><path d="m24.982 46.5h-12.982c-.552 0-1-.447-1-1s.448-1 1-1h12.982c.552 0 1 .447 1 1s-.448 1-1 1z"/></g><g><path d="m28.824 50.5h-13.016c-.552 0-1-.447-1-1s.448-1 1-1h13.016c.552 0 1 .447 1 1s-.448 1-1 1z"/></g><g><path d="m31.581 55c-.552 0-1-.447-1-1s.448-1 1-1c2.124 0 4.234-.694 5.94-1.956.445-.331 1.071-.233 1.398.209.329.444.234 1.07-.209 1.398-2.048 1.515-4.579 2.349-7.129 2.349z"/></g><g><path d="m31.581 34.49h-11.665c-.552 0-1-.447-1-1s.448-1 1-1h11.666c.552 0 1 .447 1 1s-.449 1-1.001 1z"/></g><g><path d="m31.581 55h-10.541c-.552 0-1-.447-1-1s.448-1 1-1h10.541c.552 0 1 .447 1 1s-.448 1-1 1z"/></g><g><path d="m43.5 54.935c-1.491 0-3-1.008-3-2.935 0-.553.447-1 1-1s1 .447 1 1c0 .89.833.935 1 .935s1-.045 1-.935c0-.553.447-1 1-1s1 .447 1 1c0 1.927-1.509 2.935-3 2.935z"/></g><g><path d="m54.001 43.96c-.032 0-.065-.002-.099-.005-2.6-.254-4.759-2.13-5.374-4.668-.13-.536.199-1.077.736-1.207.538-.131 1.078.199 1.207.736.415 1.712 1.872 2.977 3.626 3.148.549.054.951.543.897 1.093-.05.517-.484.903-.993.903z"/></g><g><path d="m47.5 51.126c-1.491 0-3-1.008-3-2.935 0-.553.447-1 1-1s1 .447 1 1c0 .89.833.935 1 .935s1-.045 1-.935c0-.553.447-1 1-1s1 .447 1 1c0 1.927-1.509 2.935-3 2.935z"/></g><g><path d="m39.5 53.193c-1.491 0-3-1.008-3-2.935 0-.553.447-1 1-1s1 .447 1 1c0 .89.833.935 1 .935s1-.045 1-.935c0-.553.447-1 1-1s1 .447 1 1c0 1.928-1.509 2.935-3 2.935z"/></g><g><path d="m35.48 46.845c-1.382 0-2.816-.894-2.986-2.665-.052-.55.351-1.038.901-1.09.56-.068 1.038.351 1.09.9.082.853.889.86 1.051.853.161-.008.964-.089.964-.949 0-.553.447-1 1-1s1 .447 1 1c0 1.845-1.442 2.879-2.868 2.947-.051.002-.102.004-.152.004z"/></g><g><path d="m37.5 51.259c-.553 0-1-.447-1-1v-11.308c0-.553.447-1 1-1s1 .447 1 1v11.308c0 .553-.447 1-1 1z"/></g><g><path d="m41.5 53c-.553 0-1-.447-1-1v-11.915c0-.553.447-1 1-1s1 .447 1 1v11.915c0 .553-.447 1-1 1z"/></g><g><path d="m45.5 53c-.553 0-1-.447-1-1v-12.981c0-.553.447-1 1-1s1 .447 1 1v12.981c0 .553-.447 1-1 1z"/></g><g><path d="m49.5 49.191c-.553 0-1-.447-1-1v-13.015c0-.553.447-1 1-1s1 .447 1 1v13.016c0 .552-.447.999-1 .999z"/></g><g><path d="m54 33.419c-.553 0-1-.447-1-1 0-2.124-.694-4.234-1.956-5.94-.329-.444-.235-1.07.209-1.398.444-.331 1.072-.233 1.398.209 1.515 2.049 2.349 4.58 2.349 7.13 0 .552-.447.999-1 .999z"/></g><g><path d="m33.49 45.085c-.552 0-1-.447-1-1v-11.666c0-.553.448-1 1-1 .553 0 1 .447 1 1v11.666c0 .553-.447 1-1 1z"/></g><g><path d="m54 43.96c-.553 0-1-.447-1-1v-10.541c0-.553.447-1 1-1s1 .447 1 1v10.541c0 .553-.447 1-1 1z"/></g></svg>