<svg fill="white" id="Слой_1" enable-background="new 0 0 512 512" height="512" viewBox="0 0 512 512" width="512" xmlns="http://www.w3.org/2000/svg"><g><path d="m256 0c-141.163 0-256 114.837-256 256s114.837 256 256 256 256-114.837 256-256-114.837-256-256-256zm111.963 331.762c10 10 10 26.212 0 36.212-5 4.988-11.55 7.487-18.1 7.487s-13.1-2.5-18.1-7.487l-75.763-75.774-75.762 75.775c-5 4.988-11.55 7.487-18.1 7.487s-13.1-2.5-18.1-7.487c-10-10-10-26.212 0-36.212l75.762-75.763-75.762-75.762c-10-10-10-26.213 0-36.213 10-9.988 26.2-9.988 36.2 0l75.762 75.775 75.762-75.775c10-9.988 26.2-9.988 36.2 0 10 10 10 26.213 0 36.213l-75.762 75.762z"/></g></svg>
