<!-- <svg class="icon">
  <use xlink:href="{{ asset('icons/sprite.svg#icon-home') }}"></use>
</svg> -->

<svg xmlns="http://www.w3.org/2000/svg">
  <symbol id="admin" viewBox="0 0 24 24">
    <g id="Icon">
      <path
        d="m11.5 20.263h-8.55c-.053 0-.104-.022-.141-.059-.038-.038-.059-.088-.059-.141 0-.001 0-1.451 0-1.451 0-.83.593-1.562 1.507-2.184 1.632-1.114 4.273-1.816 7.243-1.816.414 0 .75-.336.75-.75 0-.413-.336-.75-.75-.75-3.322 0-6.263.831-8.089 2.076-1.393.95-2.161 2.157-2.161 3.424v1.451c0 .45.179.883.498 1.202.319.318.751.498 1.202.498h8.55c.414-.001.75-.337.75-.751 0-.413-.336-.75-.75-.749z" />
      <path
        d="m11.5 1.25c-3.036 0-5.5 2.464-5.5 5.5s2.464 5.5 5.5 5.5 5.5-2.464 5.5-5.5-2.464-5.5-5.5-5.5zm0 1.5c2.208 0 4 1.792 4 4s-1.792 4-4 4-4-1.792-4-4 1.792-4 4-4z" />
      <path
        d="m17.5 13.938c-1.966 0-3.562 1.596-3.562 3.562s1.596 3.563 3.562 3.563 3.563-1.597 3.563-3.563-1.597-3.562-3.563-3.562zm0 1.5c1.138 0 2.063.924 2.063 2.062s-.925 2.063-2.063 2.063-2.063-.925-2.063-2.063.925-2.062 2.063-2.062z" />
      <path
        d="m18.25 14.687v-1.687c0-.414-.336-.75-.75-.75s-.75.336-.75.75v1.688c0 .413.336.75.75.75.414-.001.75-.337.75-.751z" />
      <path
        d="m20.019 16.042 1.193-1.194c.293-.292.293-.768 0-1.06-.292-.293-.768-.293-1.06 0l-1.194 1.193c-.292.293-.292.768 0 1.061.293.292.768.292 1.061 0z" />
      <path
        d="m20.312 18.25h1.688c.414 0 .75-.336.75-.75s-.336-.75-.75-.75h-1.688c-.413 0-.749.336-.749.75-.001.414.336.75.749.75z" />
      <path
        d="m18.958 20.019 1.194 1.193c.292.293.768.293 1.06 0 .293-.292.293-.768 0-1.06l-1.193-1.194c-.293-.292-.768-.292-1.061 0-.292.293-.292.768 0 1.061z" />
      <path
        d="m16.75 20.312v1.688c0 .414.336.75.75.75s.75-.336.75-.75v-1.688c0-.413-.336-.749-.75-.75-.414 0-.75.337-.75.75z" />
      <path
        d="m14.981 18.958-1.193 1.194c-.293.292-.293.768 0 1.06.292.293.768.293 1.06 0l1.194-1.193c.292-.293.292-.768 0-1.061-.293-.292-.768-.292-1.061 0z" />
      <path
        d="m14.687 16.75h-1.687c-.414 0-.75.336-.75.75s.336.75.75.75h1.687c.414 0 .751-.336.75-.75 0-.414-.336-.75-.75-.75z" />
      <path
        d="m16.042 14.981-1.194-1.193c-.292-.293-.768-.293-1.06 0-.293.292-.293.768 0 1.06l1.193 1.194c.293.292.768.292 1.061 0 .292-.293.292-.768 0-1.061z" />
    </g>
  </symbol>

  <symbol id="alert" viewBox="0 0 20 20">
    <path
      d="M10 .5a9.5 9.5 0 1 0 9.5 9.5A9.51 9.51 0 0 0 10 .5ZM9.5 4a1.5 1.5 0 1 1 0 3 1.5 1.5 0 0 1 0-3ZM12 15H8a1 1 0 0 1 0-2h1v-3H8a1 1 0 0 1 0-2h2a1 1 0 0 1 1 1v4h1a1 1 0 0 1 0 2Z" />
  </symbol>

  <symbol id="approve" viewBox="0 0 512 512">
    <g>
      <path
        d="m256 0c-141.49 0-256 114.5-256 256 0 141.49 114.5 256 256 256 141.49 0 256-114.5 256-256 0-141.49-114.5-256-256-256zm-60.914 363.99s-88.422-88.458-94.778-94.802c-14.139-14.139-14.139-37.147 0-51.274 14.175-14.175 37.099-14.175 51.274 0l57.244 57.244c7.118 7.118 18.67 7.069 25.728-.085l125.69-127.502c14.127-14.332 37.208-14.429 51.455-.181 14.03 14.03 14.115 36.942.181 51.081-136.493 138.486-162.414 165.507-162.414 165.507-14.985 14.984-39.383 14.997-54.38.012z" />
    </g>
  </symbol>

  <symbol id="arrow-down" viewBox="0 0 20 20">
    <path fill-rule="evenodd"
      d="M5.293 7.293a1 1 0 011.414 0L10 10.586l3.293-3.293a1 1 0 111.414 1.414l-4 4a1 1 0 01-1.414 0l-4-4a1 1 0 010-1.414z"
      clip-rule="evenodd"></path>
  </symbol>

  <symbol id="asc" viewBox="0 0 32 32">
    <path
      d="m8.293 22.293-1.293 1.293v-17.631a1 1 0 0 0 -2 0v17.631l-1.293-1.293a1 1 0 0 0 -1.414 1.414l3 3a1 1 0 0 0 1.414 0l3-3a1 1 0 0 0 -1.414-1.414z" />
    <path d="m14 20h12a1 1 0 0 0 0-2h-12a1 1 0 0 0 0 2z" />
    <path d="m29 24h-15a1 1 0 0 0 0 2h15a1 1 0 0 0 0-2z" />
    <path d="m14 14h9a1 1 0 0 0 0-2h-9a1 1 0 0 0 0 2z" />
    <path d="m14 8h5a1 1 0 0 0 0-2h-5a1 1 0 0 0 0 2z" />
  </symbol>

  <symbol id="back-slash" viewBox="0 0 512 512">
    <path
      d="m341.4 34.8c1.9-4.2 5.6-6.2 11.1-6.2s11.2 1.3 17.3 4c14 6.4 23 14 27.2 22.7 1.5 2.6 2.3 5.1 2.3 7.4s-.4 4.2-1.1 5.7l-227 409.4c-2.3 3.8-6.2 5.7-11.9 5.7s-11.3-1.3-17-4c-14.4-6.8-23.6-14.4-27.8-22.7-1.1-2.3-1.7-4.5-1.7-6.5s.6-4.1 1.7-6z" />
  </symbol>

  <symbol id="calender" viewBox="0 0 512 512">
    <g>
      <g>
        <g>
          <circle cx="386" cy="210" r="20" />
          <path d="M432,40h-26V20c0-11.046-8.954-20-20-20c-11.046,0-20,8.954-20,20v20h-91V20c0-11.046-8.954-20-20-20
				c-11.046,0-20,8.954-20,20v20h-90V20c0-11.046-8.954-20-20-20s-20,8.954-20,20v20H80C35.888,40,0,75.888,0,120v312
				c0,44.112,35.888,80,80,80h153c11.046,0,20-8.954,20-20c0-11.046-8.954-20-20-20H80c-22.056,0-40-17.944-40-40V120
				c0-22.056,17.944-40,40-40h25v20c0,11.046,8.954,20,20,20s20-8.954,20-20V80h90v20c0,11.046,8.954,20,20,20s20-8.954,20-20V80h91
				v20c0,11.046,8.954,20,20,20c11.046,0,20-8.954,20-20V80h26c22.056,0,40,17.944,40,40v114c0,11.046,8.954,20,20,20
				c11.046,0,20-8.954,20-20V120C512,75.888,476.112,40,432,40z" />
          <path d="M391,270c-66.72,0-121,54.28-121,121s54.28,121,121,121s121-54.28,121-121S457.72,270,391,270z M391,472
				c-44.663,0-81-36.336-81-81s36.337-81,81-81c44.663,0,81,36.336,81,81S435.663,472,391,472z" />
          <path d="M420,371h-9v-21c0-11.046-8.954-20-20-20c-11.046,0-20,8.954-20,20v41c0,11.046,8.954,20,20,20h29
				c11.046,0,20-8.954,20-20C440,379.954,431.046,371,420,371z" />
          <circle cx="299" cy="210" r="20" />
          <circle cx="212" cy="297" r="20" />
          <circle cx="125" cy="210" r="20" />
          <circle cx="125" cy="297" r="20" />
          <circle cx="125" cy="384" r="20" />
          <circle cx="212" cy="384" r="20" />
          <circle cx="212" cy="210" r="20" />
        </g>
      </g>
    </g>
  </symbol>

  <symbol id="close" aria-hidden="true" viewBox="0 0 20 20">
    <path fill-rule="evenodd"
      d="M4.293 4.293a1 1 0 011.414 0L10 8.586l4.293-4.293a1 1 0 111.414 1.414L11.414 10l4.293 4.293a1 1 0 01-1.414 1.414L10 11.414l-4.293 4.293a1 1 0 01-1.414-1.414L8.586 10 4.293 5.707a1 1 0 010-1.414z"
      clip-rule="evenodd"></path>
  </symbol>

  <symbol id="create" viewBox="0 0 6.3499999 6.3500002">
    <g id="layer1" transform="translate(0 -290.65)">
      <path id="path823"
        d="m12.003906.99804688c-6.0632818 0-11.00780424 4.93673072-11.00781225 11.00000012-.00001493 6.063307 4.94451415 11.005859 11.00781225 11.005859 6.063299 0 10.998062-4.942552 10.998047-11.005859-.000008-6.0632694-4.934764-11.00000012-10.998047-11.00000012zm0 2.00000002c4.982403 0 8.998041 4.0176 8.998047 9.0000001.000013 4.9824-4.01563 9.005859-8.998047 9.005859-4.982416 0-9.0078245-4.023459-9.0078122-9.005859.0000065-4.9824001 4.0254095-9.0000001 9.0078122-9.0000001zm-.015625 3.9863281a1.0001001 1.0001001 0 0 0 -.990234 1.0195312v2.9960938h-2.9960939a1.0001001 1.0001001 0 0 0 -.1035156 0 1.0015669 1.0015669 0 0 0 .1035156 2.001953h2.9960939v2.996094a1.0002461 1.0002461 0 0 0 2.001953 0v-2.996094h2.996094a1.0002331 1.0002331 0 0 0 0-2.001953h-2.996094v-2.9960938a1.0001001 1.0001001 0 0 0 -1.011719-1.0195312z"
        fill-rule="evenodd" transform="matrix(.265 0 0 .265 0 290.65)" font-variant-ligatures="normal"
        font-variant-position="normal" font-variant-caps="normal" font-variant-numeric="normal"
        font-variant-alternates="normal" font-feature-settings="normal" text-indent="0" text-align="start"
        text-decoration-line="none" text-decoration-style="solid" text-decoration-color="rgb(0,0,0)"
        text-transform="none" text-orientation="mixed" white-space="normal" shape-padding="0" isolation="auto"
        mix-blend-mode="normal" solid-color="rgb(0,0,0)" solid-opacity="1" vector-effect="none"
        paint-order="stroke fill markers" />
    </g>
  </symbol>

  <symbol id="crud" viewBox="0 0 20 20">
    <path clip-rule="evenodd" fill-rule="evenodd"
      d="M.99 5.24A2.25 2.25 0 013.25 3h13.5A2.25 2.25 0 0119 5.25l.01 9.5A2.25 2.25 0 0116.76 17H3.26A2.267 2.267 0 011 14.74l-.01-9.5zm8.26 9.52v-.625a.75.75 0 00-.75-.75H3.25a.75.75 0 00-.75.75v.615c0 .414.336.75.75.75h5.373a.75.75 0 00.627-.74zm1.5 0a.75.75 0 00.627.74h5.373a.75.75 0 00.75-.75v-.615a.75.75 0 00-.75-.75H11.5a.75.75 0 00-.75.75v.625zm6.75-3.63v-.625a.75.75 0 00-.75-.75H11.5a.75.75 0 00-.75.75v.625c0 .414.336.75.75.75h5.25a.75.75 0 00.75-.75zm-8.25 0v-.625a.75.75 0 00-.75-.75H3.25a.75.75 0 00-.75.75v.625c0 .414.336.75.75.75H8.5a.75.75 0 00.75-.75zM17.5 7.5v-.625a.75.75 0 00-.75-.75H11.5a.75.75 0 00-.75.75V7.5c0 .414.336.75.75.75h5.25a.75.75 0 00.75-.75zm-8.25 0v-.625a.75.75 0 00-.75-.75H3.25a.75.75 0 00-.75.75V7.5c0 .414.336.75.75.75H8.5a.75.75 0 00.75-.75z">
    </path>
  </symbol>

  <symbol id="dark" viewBox="0 0 20 20">
    <path d="M17.293 13.293A8 8 0 016.707 2.707a8.001 8.001 0 1010.586 10.586z"></path>
  </symbol>

  <symbol id="dashboard" viewBox="0 0 20 20">
    <path d="M2 10a8 8 0 018-8v8h8a8 8 0 11-16 0z"></path>
    <path d="M12 2.252A8.014 8.014 0 0117.748 8H12V2.252z"></path>
  </symbol>

  <symbol id="deadline" viewBox="0 0 510.602 510.602">
    <g>
      <path
        d="M89.483,237.738c17.078,0,30.972-13.894,30.972-30.972s-13.894-30.972-30.972-30.972   c-17.078,0-30.972,13.894-30.972,30.972S72.405,237.738,89.483,237.738z M89.483,190.794c8.807,0,15.972,7.165,15.972,15.972   s-7.165,15.972-15.972,15.972c-8.807,0-15.972-7.165-15.972-15.972S80.676,190.794,89.483,190.794z" />
      <path
        d="M183.372,237.738c17.078,0,30.972-13.894,30.972-30.972s-13.894-30.972-30.972-30.972s-30.972,13.894-30.972,30.972   S166.293,237.738,183.372,237.738z M183.372,190.794c8.807,0,15.972,7.165,15.972,15.972s-7.165,15.972-15.972,15.972   s-15.972-7.165-15.972-15.972S174.564,190.794,183.372,190.794z" />
      <path
        d="M277.26,237.738c17.078,0,30.972-13.894,30.972-30.972s-13.894-30.972-30.972-30.972   c-17.078,0-30.972,13.894-30.972,30.972S260.182,237.738,277.26,237.738z M277.26,190.794c8.807,0,15.972,7.165,15.972,15.972   s-7.165,15.972-15.972,15.972c-8.807,0-15.972-7.165-15.972-15.972S268.453,190.794,277.26,190.794z" />
      <path
        d="M402.121,206.766c0-17.078-13.894-30.972-30.972-30.972s-30.972,13.894-30.972,30.972s13.894,30.972,30.972,30.972   S402.121,223.844,402.121,206.766z M355.176,206.766c0-8.807,7.165-15.972,15.972-15.972s15.972,7.165,15.972,15.972   s-7.165,15.972-15.972,15.972S355.176,215.573,355.176,206.766z" />
      <path
        d="M89.483,324.781c17.078,0,30.972-13.894,30.972-30.972s-13.894-30.972-30.972-30.972   c-17.078,0-30.972,13.894-30.972,30.972S72.405,324.781,89.483,324.781z M89.483,277.837c8.807,0,15.972,7.165,15.972,15.972   s-7.165,15.972-15.972,15.972c-8.807,0-15.972-7.165-15.972-15.972S80.676,277.837,89.483,277.837z" />
      <path
        d="M183.372,324.781c17.078,0,30.972-13.894,30.972-30.972s-13.894-30.972-30.972-30.972s-30.972,13.894-30.972,30.972   S166.293,324.781,183.372,324.781z M183.372,277.837c8.807,0,15.972,7.165,15.972,15.972s-7.165,15.972-15.972,15.972   s-15.972-7.165-15.972-15.972S174.564,277.837,183.372,277.837z" />
      <path
        d="M89.483,411.823c17.078,0,30.972-13.894,30.972-30.972c0-17.078-13.894-30.972-30.972-30.972   c-17.078,0-30.972,13.894-30.972,30.972C58.511,397.929,72.405,411.823,89.483,411.823z M89.483,364.879   c8.807,0,15.972,7.165,15.972,15.972c0,8.807-7.165,15.972-15.972,15.972c-8.807,0-15.972-7.165-15.972-15.972   C73.511,372.044,80.676,364.879,89.483,364.879z" />
      <path
        d="M152.64,411.582c2.889,2.89,7.715,2.891,10.606,0l20.125-20.125l20.125,20.125c6.842,6.842,17.444-3.77,10.606-10.606   l-20.125-20.125l20.125-20.125c6.836-6.835-3.756-17.457-10.606-10.606l-20.125,20.125l-20.125-20.125   c-6.836-6.836-17.457,3.757-10.606,10.606l20.125,20.125l-20.125,20.125C149.711,403.904,149.711,408.653,152.64,411.582z" />
      <path
        d="M492.339,337.868c-3.295-9.094-17.398-3.985-14.103,5.109c4.452,12.287,6.731,25.207,6.775,38.401   c0.208,62.029-51.885,114.224-113.87,114.224c-62.606-0.001-113.648-50.818-113.858-113.46   c-0.209-62.206,51.679-114.223,113.875-114.223c35.441,0,68.229,16.063,89.999,44.109c5.931,7.641,17.78-1.556,11.85-9.197   c-5.176-6.668-10.908-12.729-17.097-18.157V79.798c0-17.617-14.333-31.95-31.95-31.95h-45.044V21.521   c0-28.652-44.513-28.737-44.513,0v26.328h-78.917V21.521c0-28.652-44.513-28.737-44.513,0v26.328h-78.916V21.521   c0-28.651-44.513-28.737-44.513,0v26.328H42.539c-17.617,0-31.95,14.333-31.95,31.95v267.631c0,9.673,15,9.673,15,0V152.652   h415.322V273.34c-32.602-21.047-74.181-26.087-110.942-13.73c-10.256,3.447-20.062,8.21-29.12,14.128   c-5.796-6.848-14.31-10.902-23.589-10.902c-17.078,0-30.972,13.894-30.972,30.972c0,9.843,4.748,19.035,12.464,24.816   c-19.98,35.428-21.786,79.53-4.884,116.514H42.539c-9.346,0-16.95-7.604-16.95-16.95v-33.759c0-9.673-15-9.673-15,0v33.759   c0,17.617,14.333,31.95,31.95,31.95h219.437c22.826,36.304,63.241,60.467,109.166,60.463c70.406,0,129.106-58.859,128.871-129.274   C499.962,366.403,497.38,351.781,492.339,337.868z M349.403,21.521c0-9.315,14.513-9.329,14.513,0v65.038   c0,9.315-14.513,9.329-14.513,0V21.521z M225.973,21.521c0-9.314,14.513-9.329,14.513,0v65.038c0,9.38-14.513,9.38-14.513,0V21.521   z M102.544,21.521c0-9.315,14.513-9.328,14.513,0v65.038c0,9.315-14.513,9.329-14.513,0V21.521z M25.589,137.652V79.798   c0-9.346,7.604-16.95,16.95-16.95h45.005v23.71c0,28.652,44.513,28.737,44.513,0v-23.71h78.916v23.71   c0,28.702,44.513,28.702,44.513,0v-23.71h78.917v23.71c0,28.651,44.513,28.737,44.513,0v-23.71h45.044   c9.346,0,16.95,7.604,16.95,16.95v57.854H25.589z M261.288,293.809c0-8.807,7.165-15.972,15.972-15.972   c4.43,0,8.523,1.793,11.479,4.862c-8.186,6.832-15.534,14.655-21.825,23.265C263.412,302.967,261.288,298.534,261.288,293.809z" />
      <path
        d="M371.069,434.965c-6.373,0.021-12.356,2.522-16.848,7.043c-4.492,4.521-6.955,10.521-6.934,16.894   s2.523,12.356,7.046,16.847c4.502,4.471,10.469,6.93,16.811,6.929c0.027,0,0.056,0,0.083,0c6.373-0.021,12.355-2.522,16.847-7.042   c4.493-4.521,6.955-10.521,6.933-16.894s-2.523-12.355-7.046-16.847C383.441,437.404,377.419,434.985,371.069,434.965z    M380.009,458.792c0.008,2.365-0.906,4.592-2.573,6.27c-1.668,1.679-3.89,2.607-6.257,2.615c-0.011,0-0.021,0-0.031,0   c-2.355,0-4.572-0.913-6.244-2.573c-1.679-1.667-2.607-3.888-2.615-6.253c-0.008-2.366,0.906-4.593,2.574-6.271   s3.89-2.607,6.257-2.615c0.01,0,0.021,0,0.031,0c2.355,0,4.571,0.913,6.244,2.574C379.072,454.205,380.001,456.426,380.009,458.792   L380.009,458.792z" />
      <path
        d="M395.401,305.096c0-13.374-10.88-24.254-24.253-24.254c-13.374,0-24.254,10.88-24.254,24.254v100.099   c0,13.374,10.88,24.254,24.254,24.254c13.373,0,24.253-10.88,24.253-24.254V305.096z M380.401,405.195   c0,5.103-4.151,9.254-9.253,9.254c-5.103,0-9.254-4.151-9.254-9.254V305.096c0-5.103,4.151-9.254,9.254-9.254   c5.102,0,9.253,4.151,9.253,9.254V405.195z" />
    </g>
  </symbol>

  <symbol id="delete" viewBox="0 0 20 20">
    <path fill-rule="evenodd"
      d="M9 2a1 1 0 00-.894.553L7.382 4H4a1 1 0 000 2v10a2 2 0 002 2h8a2 2 0 002-2V6a1 1 0 100-2h-3.382l-.724-1.447A1 1 0 0011 2H9zM7 8a1 1 0 012 0v6a1 1 0 11-2 0V8zm5-1a1 1 0 00-1 1v6a1 1 0 102 0V8a1 1 0 00-1-1z"
      clip-rule="evenodd"></path>
  </symbol>

  <symbol id="desc" viewBox="0 0 32 32">
    <path
      d="m2.3037109 20.5410156c-.3964844.3847656-.40625 1.0175781-.0214844 1.4140625l3.8457031 3.9638672c.0002441.0002441.0006104.0003662.0008545.0006104.1817627.1881104.4343262.3070068.7169189.3070068s.5351562-.1188965.7169189-.3070068c.0002441-.0002441.0006104-.0003662.0008545-.0006104l3.8466797-3.9638672c.3847656-.3964844.375-1.0292969-.0214844-1.4140625s-1.0292969-.375-1.4140625.0214844l-2.1289062 2.1940308v-15.9830933c0-.5527344-.4472656-1-1-1s-1 .4472656-1 1v15.9827881l-2.1279296-2.1937256c-.3847656-.3964844-1.0175781-.40625-1.4140625-.0214844z" />
    <path
      d="m26.8798828 12.9228516c0-.5527344-.4472656-1-1-1h-10.8515625c-.5527344 0-1 .4472656-1 1s.4472656 1 1 1h10.8515625c.5527344 0 1-.4472657 1-1z" />
    <path
      d="m23.7597656 19.0732422c0-.5527344-.4472752-1-1-1h-7.7314453c-.5527344 0-1 .4472656-1 1s.4472656 1 1 1h7.7314453c.5527249 0 1-.4472656 1-1z" />
    <path
      d="m15.0283203 24.2265625c-.5527344 0-1 .4472656-1 1s.4472656 1 1 1h4.6113281c.5527344 0 1-.4472656 1-1s-.4472656-1-1-1z" />
    <path
      d="m29 5.7734375h-13.9716797c-.5527344 0-1 .4472656-1 1s.4472656 1 1 1h13.9716797c.5527344 0 1-.4472656 1-1s-.4472656-1-1-1z" />
  </symbol>

  <symbol id="due" viewBox="0 0 512.018 512.018">
    <g>
      <g>
        <path
          d="m109.53 179.232h-44.129c-5.523 0-10 4.477-10 10v44.129c0 5.523 4.477 10 10 10h44.129c5.523 0 10-4.477 10-10v-44.129c0-5.523-4.477-10-10-10zm-10 44.13h-24.129v-24.129h24.129z" />
        <path
          d="m109.53 277.046h-44.129c-5.523 0-10 4.477-10 10v44.129c0 5.523 4.477 10 10 10h44.129c5.523 0 10-4.477 10-10v-44.129c0-5.523-4.477-10-10-10zm-10 44.129h-24.129v-24.129h24.129z" />
        <path
          d="m196.381 243.362c5.523 0 10-4.477 10-10v-44.129c0-5.523-4.477-10-10-10h-44.129c-5.523 0-10 4.477-10 10v44.129c0 5.523 4.477 10 10 10zm-34.13-44.13h24.129v24.129h-24.129z" />
        <path
          d="m239.102 243.362h44.129c5.522 0 10-4.477 10-10v-44.129c0-5.523-4.478-10-10-10h-44.129c-5.523 0-10 4.477-10 10v44.129c0 5.523 4.477 10 10 10zm10-44.13h24.129v24.129h-24.129z" />
        <path
          d="m293.231 331.175v-44.129c0-5.523-4.478-10-10-10h-44.129c-5.523 0-10 4.477-10 10v44.129c0 5.523 4.477 10 10 10h44.129c5.523 0 10-4.477 10-10zm-20-10h-24.129v-24.129h24.129z" />
        <path
          d="m325.953 243.362h44.129c5.522 0 10-4.477 10-10v-44.129c0-5.523-4.478-10-10-10h-44.129c-5.522 0-10 4.477-10 10v44.129c0 5.523 4.478 10 10 10zm10-44.13h24.129v24.129h-24.129z" />
        <path
          d="m507.423 461.152-1.232-2.134c-2.763-4.782-8.878-6.422-13.661-3.658-4.782 2.762-6.42 8.878-3.657 13.661l1.231 2.132c5.266 9.125-1.538 20.838-12.031 20.838h-211.107c-10.494 0-17.295-11.719-12.031-20.838l105.553-182.823c2.512-4.349 7.009-6.946 12.031-6.946s9.52 2.597 12.03 6.946l60.449 104.702c2.762 4.783 8.875 6.423 13.66 3.66 4.783-2.761 6.422-8.877 3.66-13.66l-24.979-43.266v-288.472c0-5.523-4.478-10-10-10h-57.044v-8.373c0-18.138-14.756-32.894-32.894-32.894s-32.895 14.756-32.895 32.894v8.373h-54.029v-8.373c0-18.138-14.756-32.894-32.894-32.894s-32.893 14.756-32.893 32.894v8.373h-54.029v-8.373c0-18.138-14.756-32.894-32.895-32.894-18.138 0-32.894 14.756-32.894 32.894v8.373h-54.872c-5.523 0-10 4.477-10 10v344.465c0 5.523 4.477 10 10 10h259.597l-31.982 55.395c-12.851 22.259 3.75 50.838 29.351 50.838h211.106c12.252 0 23.225-6.334 29.351-16.945 6.127-10.612 6.127-23.282 0-33.895zm-182.915-428.231c0-7.11 5.784-12.894 12.895-12.894 7.109 0 12.894 5.784 12.894 12.894l-.001 37.162c0 7.005-5.884 12.898-12.893 12.898-7.02 0-12.895-5.88-12.895-12.898zm-119.818 0c0-7.11 5.784-12.894 12.894-12.894s12.894 5.784 12.894 12.894v37.166c0 7.11-5.784 12.894-12.894 12.894s-12.894-5.784-12.894-12.894zm-106.922-12.894c7.11 0 12.894 5.784 12.894 12.894v37.166c0 7.017-5.878 12.894-12.895 12.894-7.012 0-12.892-5.9-12.892-12.898v-18.789c0-.016-.002-18.373-.002-18.373 0-7.11 5.785-12.894 12.895-12.894zm-77.768 125.521h30.551c5.523 0 10-4.477 10-10s-4.477-10-10-10h-30.551v-64.254h44.873v8.792c0 17.889 14.98 32.895 32.891 32.895 17.912 0 32.898-14.987 32.898-32.898v-8.789h54.025v8.789c0 18.14 14.758 32.898 32.898 32.898s32.898-14.758 32.898-32.898v-8.789h54.024v8.789c.026 13.318 8.328 25.599 20.702 30.555 3.87 1.55 8.028 2.343 12.197 2.343 17.907 0 32.89-14.996 32.89-32.895v-8.792h47.044v64.254h-275.592c-5.523 0-10 4.477-10 10s4.477 10 10 10h275.592v159.571l-15.468-26.793c-6.127-10.61-17.101-16.945-29.352-16.945-.001 0 0 0-.001 0-12.252 0-23.226 6.335-29.354 16.946l-62.028 107.432h-261.137z" />
        <path
          d="m196.999 285.284-25.271 27.665-8.921-9.078c-3.87-3.939-10.202-3.994-14.142-.123-3.939 3.871-3.994 10.202-.123 14.142l16.318 16.605c1.882 1.915 4.452 2.991 7.132 2.991.061 0 .122 0 .183-.001 2.746-.05 5.349-1.227 7.201-3.254l32.389-35.457c3.725-4.078 3.439-10.403-.639-14.128-4.077-3.725-10.402-3.439-14.127.638z" />
        <path
          d="m95.49 145.549c4.316 0 8.23-2.891 9.531-6.994 1.33-4.194-.327-8.874-3.981-11.316-7.321-4.893-17.241 1.868-15.309 10.476 1.013 4.512 5.125 7.834 9.759 7.834z" />
        <path
          d="m383.52 343.521c0-5.523-4.478-10-10-10s-10 4.477-10 10v79.517c0 5.523 4.478 10 10 10s10-4.477 10-10z" />
        <path
          d="m381.83 451.979c-2.987-4.558-9.352-5.776-13.86-2.77-4.534 3.023-5.774 9.336-2.77 13.87 3.014 4.55 9.346 5.761 13.869 2.76 4.542-3.013 5.771-9.337 2.761-13.86z" />
        <path
          d="m485.685 422.954c-2.987-4.558-9.352-5.776-13.86-2.77-4.534 3.023-5.774 9.336-2.77 13.87 3.014 4.55 9.346 5.761 13.869 2.76 4.542-3.013 5.771-9.337 2.761-13.86z" />
      </g>
    </g>
  </symbol>

  <symbol id="edit" viewBox="0 0 20 20">
    <path d="M17.414 2.586a2 2 0 00-2.828 0L7 10.172V13h2.828l7.586-7.586a2 2 0 000-2.828z">
    </path>
    <path fill-rule="evenodd" d="M2 6a2 2 0 012-2h4a1 1 0 010 2H4v10h10v-4a1 1 0 112 0v4a2 2 0 01-2 2H4a2 2 0 01-2-2V6z"
      clip-rule="evenodd">
    </path>
  </symbol>

  <symbol id="email" viewBox="0 0 512 512">
    <g>
      <g>
        <path d="M467,76H45C20.137,76,0,96.262,0,121v270c0,24.885,20.285,45,45,45h422c24.655,0,45-20.03,45-45V121
			C512,96.306,491.943,76,467,76z M460.698,106c-9.194,9.145-167.415,166.533-172.878,171.967c-8.5,8.5-19.8,13.18-31.82,13.18
			s-23.32-4.681-31.848-13.208C220.478,274.284,64.003,118.634,51.302,106H460.698z M30,384.894V127.125L159.638,256.08L30,384.894z
			 M51.321,406l129.587-128.763l22.059,21.943c14.166,14.166,33,21.967,53.033,21.967c20.033,0,38.867-7.801,53.005-21.939
			l22.087-21.971L460.679,406H51.321z M482,384.894L352.362,256.08L482,127.125V384.894z" />
      </g>
    </g>
  </symbol>

  <symbol id="google" viewBox="0 0 512 512">
    <path style="fill:#167EE6;"
      d="M492.668,211.489l-208.84-0.01c-9.222,0-16.697,7.474-16.697,16.696v66.715
	c0,9.22,7.475,16.696,16.696,16.696h117.606c-12.878,33.421-36.914,61.41-67.58,79.194L384,477.589
	c80.442-46.523,128-128.152,128-219.53c0-13.011-0.959-22.312-2.877-32.785C507.665,217.317,500.757,211.489,492.668,211.489z" />
    <path style="fill:#12B347;" d="M256,411.826c-57.554,0-107.798-31.446-134.783-77.979l-86.806,50.034
	C78.586,460.443,161.34,512,256,512c46.437,0,90.254-12.503,128-34.292v-0.119l-50.147-86.81
	C310.915,404.083,284.371,411.826,256,411.826z" />
    <path style="fill:#0F993E;" d="M384,477.708v-0.119l-50.147-86.81c-22.938,13.303-49.48,21.047-77.853,21.047V512
	C302.437,512,346.256,499.497,384,477.708z" />
    <path style="fill:#FFD500;" d="M100.174,256c0-28.369,7.742-54.91,21.043-77.847l-86.806-50.034C12.502,165.746,0,209.444,0,256
	s12.502,90.254,34.411,127.881l86.806-50.034C107.916,310.91,100.174,284.369,100.174,256z" />
    <path style="fill:#FF4B26;" d="M256,100.174c37.531,0,72.005,13.336,98.932,35.519c6.643,5.472,16.298,5.077,22.383-1.008
	l47.27-47.27c6.904-6.904,6.412-18.205-0.963-24.603C378.507,23.673,319.807,0,256,0C161.34,0,78.586,51.557,34.411,128.119
	l86.806,50.034C148.202,131.62,198.446,100.174,256,100.174z" />
    <path style="fill:#D93F21;"
      d="M354.932,135.693c6.643,5.472,16.299,5.077,22.383-1.008l47.27-47.27
	c6.903-6.904,6.411-18.205-0.963-24.603C378.507,23.672,319.807,0,256,0v100.174C293.53,100.174,328.005,113.51,354.932,135.693z" />

  </symbol>

  <symbol id="hide-organization" viewBox="0 0 24 24">
    <path d="m12 1a11 11 0 1 0 11 11 11.013 11.013 0 0 0 -11-11zm0 20a9 9 0 1 1 9-9 9.01 9.01 0 0 1 -9 9z" />
    <path d="m16 11h-8a1 1 0 0 0 0 2h8a1 1 0 0 0 0-2z" />
  </symbol>

  <symbol id="home" viewBox="0 0 20 20">
    <path
      d="M10.707 2.293a1 1 0 00-1.414 0l-7 7a1 1 0 001.414 1.414L4 10.414V17a1 1 0 001 1h2a1 1 0 001-1v-2a1 1 0 011-1h2a1 1 0 011 1v2a1 1 0 001 1h2a1 1 0 001-1v-6.586l.293.293a1 1 0 001.414-1.414l-7-7z">
    </path>
  </symbol>

  <symbol id="installment-payment" viewBox="0 0 64 64">
    <g>
      <path d="m32.859 44.868-1.982.265c.081.613.123 1.242.123 1.867h2c0-.714-.047-1.431-.141-2.132z" />
      <path
        d="m60 7h-1v-3c0-1.654-1.346-3-3-3h-2c-1.654 0-3 1.346-3 3v3h-28v-3c0-1.654-1.346-3-3-3h-2c-1.654 0-3 1.346-3 3v3h-1c-1.654 0-3 1.346-3 3v22.178c-5.856 2.379-10 8.122-10 14.822 0 8.822 7.178 16 16 16 6.619 0 12.423-4.099 14.821-10h28.179c1.654 0 3-1.346 3-3v-40c0-1.654-1.346-3-3-3zm-7-3c0-.551.449-1 1-1h2c.551 0 1 .449 1 1v8c0 .551-.449 1-1 1h-2c-.551 0-1-.449-1-1zm-36 0c0-.551.449-1 1-1h2c.551 0 1 .449 1 1v8c0 .551-.449 1-1 1h-2c-.551 0-1-.449-1-1zm13.876 44.868c-.921 6.916-6.886 12.132-13.876 12.132-7.72 0-14-6.28-14-14s6.28-14 14-14c6.278 0 11.829 4.222 13.497 10.266l1.928-.532c-1.907-6.909-8.25-11.734-15.425-11.734-1.383 0-2.719.195-4 .527v-21.527c0-.551.449-1 1-1h1v3c0 1.654 1.346 3 3 3h2c1.654 0 3-1.346 3-3v-3h28v3c0 1.654 1.346 3 3 3h2c1.654 0 3-1.346 3-3v-3h1c.551 0 1 .449 1 1v9h-42v2h42v19.879l-3.186-4.46c-.162-.227-.411-.375-.687-.411-.274-.033-.554.045-.768.224l-3.36 2.8v-4.032h6v-2h-7c-.552 0-1 .448-1 1v6.698l-12.361 10.302h-6.157c.158-.611.293-1.23.378-1.868zm25.936-10.41 3.662 5.126-16.686 7.416h-2.026zm3.188 12.542h-11.288l12.288-5.461v4.461c0 .551-.449 1-1 1z" />
      <path d="m15 19h2v2h-2z" />
      <path
        d="m23 30v-6c0-.552-.448-1-1-1h-6c-.552 0-1 .448-1 1v6c0 .552.448 1 1 1h1 5c.552 0 1-.448 1-1zm-2-1h-4v-4h4z" />
      <path d="m34 31c.552 0 1-.448 1-1v-6c0-.552-.448-1-1-1h-6c-.552 0-1 .448-1 1v6c0 .552.448 1 1 1zm-5-6h4v4h-4z" />
      <path d="m40 31h6c.552 0 1-.448 1-1v-6c0-.552-.448-1-1-1h-6c-.552 0-1 .448-1 1v6c0 .552.448 1 1 1zm1-6h4v4h-4z" />
      <path d="m52 31h6c.552 0 1-.448 1-1v-6c0-.552-.448-1-1-1h-6c-.552 0-1 .448-1 1v6c0 .552.448 1 1 1zm1-6h4v4h-4z" />
      <path d="m33 41h2v-7c0-.552-.448-1-1-1h-6v2h5z" />
      <path d="m40 41h6c.552 0 1-.448 1-1v-6c0-.552-.448-1-1-1h-6c-.552 0-1 .448-1 1v6c0 .552.448 1 1 1zm1-6h4v4h-4z" />
      <path
        d="m18 37.101v-2.101h-2v2.101c-2.279.465-4 2.484-4 4.899 0 2.757 2.243 5 5 5 1.654 0 3 1.346 3 3s-1.346 3-3 3-3-1.346-3-3v-1h-2v1c0 2.414 1.721 4.434 4 4.899v2.101h2v-2.101c2.279-.465 4-2.484 4-4.899 0-2.757-2.243-5-5-5-1.654 0-3-1.346-3-3s1.346-3 3-3 3 1.346 3 3v1h2v-1c0-2.414-1.721-4.434-4-4.899z" />
    </g>
  </symbol>

  <symbol id="installment-type" viewBox="0 0 512 512">
    <g>
      <path d="m401.48 263.97h18c3.31 0 6-2.69 6-6s-2.69-6-6-6h-18c-3.31 0-6 2.69-6 6s2.68 6 6 6z" />
      <path
        d="m140.66 444.35c42.62 0 79.85-23.52 99.41-58.25h220.28c13.79 0 25-11.21 25-25v-214.26c0-13.79-11.21-25-25-25h-6.3v-38.19c0-8.82-7.18-16-16-16-.36 0-.72.03-1.07.1l-299.13 54.19c-.98.18-1.85.59-2.59 1.15-9.98 3.28-17.21 12.69-17.21 23.75v16.76h-1.07c-10.23 0-18.55 8.32-18.55 18.55 0 9.87 7.75 17.93 17.48 18.49v18.41c-51 11.34-89.25 56.93-89.25 111.29-.01 62.87 51.14 114.01 114 114.01zm332.69-157.6h-92c-4.41 0-8-3.59-8-8v-41.56c0-4.41 3.59-8 8-8h92zm-34.89-207.08c2.01.21 3.58 1.91 3.58 3.98v38.19h-236.34zm-308.42 67.17c0-7.17 5.83-13 13-13h317.3c7.17 0 13 5.83 13 13v70.35h-92c-11.03 0-20 8.97-20 20v41.56c0 11.03 8.97 20 20 20h92v62.35c0 7.17-5.83 13-13 13h-214.41c5.62-13.48 8.74-28.26 8.74-43.76 0-28.18-10.28-54-27.29-73.92l7.75-9.18.82.69c2.63 2.22 5.89 3.41 9.29 3.41.41 0 .83-.02 1.24-.05 3.84-.32 7.33-2.13 9.82-5.08s3.68-6.69 3.36-10.53c-.33-3.84-2.13-7.33-5.08-9.82l-24.35-20.56c-2.95-2.49-6.69-3.68-10.53-3.35-3.84.32-7.33 2.13-9.82 5.08-4.94 5.85-4.4 14.49 1.04 19.72l-7.28 8.62c-11.46-7.63-24.38-13.23-38.23-16.31v-18.41c9.73-.56 17.48-8.63 17.48-18.49 0-10.23-8.32-18.55-18.55-18.55h-34.3zm108.29 87.39c-.01-.01-.02-.02-.03-.03s-.03-.02-.04-.03l-18.91-15.96c-1.03-.87-1.16-2.41-.29-3.44.57-.67 1.28-.83 1.66-.86s1.11 0 1.78.57l24.35 20.56c1.03.87 1.16 2.41.29 3.44s-2.41 1.16-3.44.29zm-18.27.29 5.9 4.98-6.89 8.16c-1.87-1.77-3.79-3.48-5.78-5.13zm-109.63-52.37c0-3.61 2.94-6.55 6.55-6.55h47.37c3.61 0 6.55 2.94 6.55 6.55s-2.94 6.55-6.55 6.55h-4.86c-.02 0-.04 0-.07 0s-.04 0-.07 0h-37.38c-.02 0-.04 0-.07 0s-.04 0-.07 0h-4.86c-3.61 0-6.54-2.94-6.54-6.55zm17.47 18.55h25.51v16.35c-4.19-.47-8.44-.72-12.76-.72-4.31 0-8.57.25-12.75.72zm12.76 27.63c56.25 0 102.01 45.76 102.01 102.01s-45.76 102.01-102.01 102.01-102.01-45.76-102.01-102.01 45.76-102.01 102.01-102.01z" />
      <path
        d="m140.66 412.71c45.42 0 82.37-36.95 82.37-82.37s-36.95-82.37-82.37-82.37-82.37 36.95-82.37 82.37 36.95 82.37 82.37 82.37zm-59.26-89.69h-10.73c1.53-14.71 7.62-28.08 16.81-38.69l7.03 7.03c1.17 1.17 2.71 1.76 4.24 1.76s3.07-.59 4.24-1.76c2.34-2.34 2.34-6.14 0-8.49l-6.93-6.93c10.7-8.78 24.02-14.47 38.59-15.7v9.52c0 3.31 2.69 6 6 6s6-2.69 6-6v-9.52c14.57 1.24 27.9 6.92 38.59 15.7l-6.93 6.93c-2.34 2.34-2.34 6.14 0 8.49 1.17 1.17 2.71 1.76 4.24 1.76s3.07-.59 4.24-1.76l7.03-7.03c9.19 10.61 15.29 23.98 16.81 38.69h-10.73c-3.31 0-6 2.69-6 6s2.69 6 6 6h10.94c-1 15.09-6.75 28.89-15.8 39.91l-8.25-8.25c-2.34-2.34-6.14-2.34-8.49 0s-2.34 6.14 0 8.49l8.35 8.35c-10.93 9.47-24.78 15.63-40.01 16.92v-12.16c0-3.31-2.69-6-6-6s-6 2.69-6 6v12.16c-15.23-1.29-29.08-7.45-40.01-16.92l8.35-8.35c2.34-2.34 2.34-6.14 0-8.49-2.34-2.34-6.14-2.34-8.49 0l-8.25 8.25c-9.05-11.02-14.81-24.82-15.8-39.91h10.96c3.31 0 6-2.69 6-6s-2.69-6-6-6z" />
      <path
        d="m140.66 336.34h29.19c3.31 0 6-2.69 6-6s-2.69-6-6-6h-23.19v-33.12c0-3.31-2.69-6-6-6s-6 2.69-6 6v39.12c0 3.32 2.69 6 6 6z" />
    </g>
  </symbol>

  <symbol id="join" viewBox="0 0 64 64">
    <path id="path839"
      d="m25.5 32c-9.1150542 0-16.5 7.3849458-16.5 16.5v6c0 2.4670542 2.0329458 4.5 4.5 4.5h18a1.50015 1.50015 0 1 0 0-3h-18c-.85694585 0-1.5-.64305415-1.5-1.5v-6c0-7.5049458 5.9950542-13.5 13.5-13.5h13c1.3451063 0 2.6376951.19436413 3.8574219.5546875a1.50015 1.50015 0 1 0 .84960937-2.8769531c-1.4925263-.44091195-3.0733463-.67773438-4.7070312-.67773438z"
      font-feature-settings="normal" font-variant-alternates="normal" font-variant-caps="normal"
      font-variant-ligatures="normal" font-variant-numeric="normal" font-variant-position="normal" isolation="auto"
      mix-blend-mode="normal" paint-order="fill markers stroke" shape-padding="0" solid-color="rgb(0,0,0)"
      text-decoration-color="rgb(0,0,0)" text-decoration-line="none" text-decoration-style="solid" text-indent="0"
      text-orientation="mixed" text-transform="none" white-space="normal" />
    <path id="path892"
      d="m32 5c-6.60965 0-12 5.39035-12 12s5.39035 12 12 12 12-5.39035 12-12-5.39035-12-12-12zm0 3c4.9883297 0 9 4.0116703 9 9s-4.0116703 9-9 9-9-4.0116703-9-9 4.0116703-9 9-9z"
      font-feature-settings="normal" font-variant-alternates="normal" font-variant-caps="normal"
      font-variant-ligatures="normal" font-variant-numeric="normal" font-variant-position="normal" isolation="auto"
      mix-blend-mode="normal" paint-order="fill markers stroke" shape-padding="0" solid-color="rgb(0,0,0)"
      text-decoration-color="rgb(0,0,0)" text-decoration-line="none" text-decoration-style="solid" text-indent="0"
      text-orientation="mixed" text-transform="none" white-space="normal" />
    <path id="path873"
      d="m45 37c-6.60965 0-12 5.39035-12 12s5.39035 12 12 12c2.1925542 0 4.343574-.60010252 6.21875-1.7363281a1.5002912 1.5002912 0 1 0 -1.5546875-2.5664063c-1.4065214.85225367-3.0194839 1.3027344-4.6640625 1.3027344-4.9883297 0-9-4.0116703-9-9s4.0116703-9 9-9 9 4.0116703 9 9c0 1.644402-.45065351 3.2576429-1.3027344 4.6640625a1.5002912 1.5002912 0 1 0 2.5664063 1.5546875c1.1359953-1.8750403 1.7363281-4.0264313 1.7363281-6.21875 0-6.60965-5.39035-12-12-12z"
      font-feature-settings="normal" font-variant-alternates="normal" font-variant-caps="normal"
      font-variant-ligatures="normal" font-variant-numeric="normal" font-variant-position="normal" isolation="auto"
      mix-blend-mode="normal" paint-order="fill markers stroke" shape-padding="0" solid-color="rgb(0,0,0)"
      text-decoration-color="rgb(0,0,0)" text-decoration-line="none" text-decoration-style="solid" text-indent="0"
      text-orientation="mixed" text-transform="none" white-space="normal" />
    <path id="rect838"
      d="m45 43.999848c-.831 0-1.5.669-1.5 1.5v2h-2c-.831 0-1.5.669-1.5 1.5s.669 1.5 1.5 1.5h2v2c0 .831.669 1.5 1.5 1.5.83100001 0 1.5-.669 1.5-1.5v-2h2c.83100001 0 1.5-.669 1.5-1.5s-.66899999-1.5-1.5-1.5h-2v-2c0-.831-.66899999-1.5-1.5-1.5z"
      paint-order="fill markers stroke" />
  </symbol>

  <symbol id="left-arrow" viewBox="0 0 20 20">
    <path fill-rule="evenodd"
      d="M12.707 5.293a1 1 0 010 1.414L9.414 10l3.293 3.293a1 1 0 01-1.414 1.414l-4-4a1 1 0 010-1.414l4-4a1 1 0 011.414 0z"
      clip-rule="evenodd"></path>
  </symbol>

  <symbol id="light" viewBox="0 0 20 20">
    <path
      d="M10 2a1 1 0 011 1v1a1 1 0 11-2 0V3a1 1 0 011-1zm4 8a4 4 0 11-8 0 4 4 0 018 0zm-.464 4.95l.707.707a1 1 0 001.414-1.414l-.707-.707a1 1 0 00-1.414 1.414zm2.12-10.607a1 1 0 010 1.414l-.706.707a1 1 0 11-1.414-1.414l.707-.707a1 1 0 011.414 0zM17 11a1 1 0 100-2h-1a1 1 0 100 2h1zm-7 4a1 1 0 011 1v1a1 1 0 11-2 0v-1a1 1 0 011-1zM5.05 6.464A1 1 0 106.465 5.05l-.708-.707a1 1 0 00-1.414 1.414l.707.707zm1.414 8.486l-.707.707a1 1 0 01-1.414-1.414l.707-.707a1 1 0 011.414 1.414zM4 11a1 1 0 100-2H3a1 1 0 000 2h1z"
      fill-rule="evenodd" clip-rule="evenodd"></path>
  </symbol>

  <symbol id="logo" viewBox="0 0 32 33">
    <path
      d="M24.5194 13.4429C24.4453 13.9533 24.1087 14.6468 23.7226 15.2497C23.2354 16.0105 22.4622 16.5433 21.5774 16.7283L17.6797 17.5434C17.0533 17.6744 16.4852 18.0022 16.0587 18.479L13.503 21.3357C13.0227 21.8725 12.687 21.7445 12.687 21.0244C12.6812 21.0511 11.4186 24.3072 14.7646 26.2371C16.0502 26.9787 17.9009 26.7122 19.1865 25.9707L25.9983 22.0416C28.5458 20.5722 30.3445 18.0863 30.9424 15.2089C30.966 15.095 30.9843 14.9808 31.004 14.8667L24.5194 13.4429Z"
      fill="url(#paint0_linear_2484_3243)" />
    <path
      d="M22.7528 9.51774C24.0384 10.2593 24.5637 11.3633 24.5637 12.8464C24.5637 13.0477 24.5479 13.2466 24.5194 13.4425L27.2641 14.6215L31.004 14.8663C31.4829 12.0948 30.5444 9.24202 28.862 6.97445C27.5959 5.268 25.9667 3.78714 24.0081 2.65738C22.417 1.73966 20.7636 1.13501 19.1025 0.803223L17.2361 3.22023L16.6465 5.99559L22.7528 9.51774Z"
      fill="url(#paint1_linear_2484_3243)" />
    <path
      d="M0.783597 11.5518C0.782899 11.554 0.784832 11.5546 0.78556 11.5524C0.929583 11.1205 1.11018 10.6385 1.33564 10.1237C2.51334 7.4343 4.78286 5.64062 7.57492 4.72608C10.367 3.81156 13.4155 4.13212 15.9601 5.59988L16.6465 5.99578L19.1025 0.803412C11.291 -0.756765 3.30728 3.83253 0.793528 11.5217C0.792327 11.5254 0.787957 11.5382 0.783597 11.5518Z"
      fill="url(#paint2_linear_2484_3243)" />
    <path
      d="M18.9199 25.9704C17.6343 26.712 16.0503 26.712 14.7647 25.9704C14.5902 25.8697 14.4257 25.7566 14.2701 25.634L12.0091 27.1885L10.0603 30.3376C12.2233 32.1377 15.0321 32.7164 17.839 32.3945C19.9513 32.1523 22.0495 31.4832 24.0082 30.3534C25.5992 29.4357 26.9501 28.3075 28.0682 27.0361L26.9063 24.2128L25.0262 22.4482L18.9199 25.9704Z"
      fill="url(#paint3_linear_2484_3243)" />
    <path
      d="M14.2701 25.6341C13.2796 24.8539 12.6872 23.6572 12.6872 22.3754V22.2476V11.5724C12.6872 10.9687 12.865 10.8661 13.3884 11.168C12.5823 10.703 10.7203 9.10701 8.42118 10.4331C7.13557 11.1747 6.0769 12.8116 6.0769 14.2946V22.1529C6.0769 25.0917 7.59906 28.1573 9.79448 30.1133C9.88132 30.1906 9.97122 30.2636 10.0603 30.3377L14.2701 25.6341Z"
      fill="url(#paint4_linear_2484_3243)" />
    <path
      d="M27.9105 5.8123C27.909 5.8106 27.9075 5.81197 27.909 5.81368C28.2114 6.15428 28.5389 6.5515 28.8725 7.00399C30.6149 9.36765 31.2659 12.3613 30.6627 15.2343C30.0594 18.1072 28.2573 20.5846 25.7126 22.0523L25.0262 22.4482L28.0683 27.0361C33.3265 21.0576 33.3401 11.8554 27.9316 5.83594C27.9291 5.83306 27.9201 5.82287 27.9105 5.8123Z"
      fill="url(#paint5_linear_2484_3243)" />
    <path
      d="M6.34355 14.2944C6.34354 12.8113 7.13552 11.4408 8.42113 10.6993C8.59565 10.5986 8.77601 10.5129 8.96002 10.4395L8.74304 7.70603L7.21862 4.57861C4.57671 5.55005 2.4397 7.55766 1.31528 10.1471C0.469097 12.0957 9.792e-06 14.2458 0 16.5052C0 18.3407 0.302549 20.0735 0.845533 21.6767L3.87391 22.083L6.34355 21.3387V14.2944V14.2944Z"
      fill="url(#paint6_linear_2484_3243)" />
    <path
      d="M8.96003 10.4395C10.1316 9.97264 11.4652 10.0584 12.5763 10.6993L12.6871 10.7632L21.5825 15.8941C22.2065 16.254 22.1498 16.6082 21.4445 16.7557L21.9577 16.6484C22.6329 16.5072 23.2498 16.1621 23.7216 15.6592C24.5327 14.7946 24.8305 13.7515 24.8305 12.8463C24.8304 11.3632 24.0385 9.99274 22.7529 9.2512L15.941 5.32209C13.3935 3.85267 10.3394 3.53934 7.5461 4.46083C7.4356 4.49727 7.32744 4.5386 7.21863 4.57861L8.96003 10.4395Z"
      fill="url(#paint7_linear_2484_3243)" />
    <path
      d="M19.3222 32.1523C19.3245 32.1518 19.3241 32.1498 19.3218 32.1503C18.8753 32.2417 18.3673 32.3264 17.8083 32.3888C14.8881 32.7145 11.9676 31.781 9.77876 29.8225C7.58999 27.8641 6.3436 25.0662 6.3436 22.1307L6.34359 21.3389L0.845581 21.6769C3.39893 29.2156 11.369 33.8285 19.2912 32.1588C19.295 32.158 19.3083 32.1553 19.3222 32.1523Z"
      fill="url(#paint8_linear_2484_3243)" />
    <defs>
      <linearGradient id="paint0_linear_2484_3243" x1="20.0599" y1="24.2701" x2="23.2075" y2="13.307"
        gradientUnits="userSpaceOnUse">
        <stop stop-color="#1724C9" />
        <stop offset="1" stop-color="#1C64F2" />
      </linearGradient>
      <linearGradient id="paint1_linear_2484_3243" x1="27.3093" y1="10.9001" x2="19.0297" y2="2.64962"
        gradientUnits="userSpaceOnUse">
        <stop stop-color="#1C64F2" />
        <stop offset="1" stop-color="#0092FF" />
      </linearGradient>
      <linearGradient id="paint2_linear_2484_3243" x1="16.1645" y1="5.52115" x2="3.67432" y2="6.3104"
        gradientUnits="userSpaceOnUse">
        <stop stop-color="#0092FF" />
        <stop offset="1" stop-color="#45B2FF" />
      </linearGradient>
      <linearGradient id="paint3_linear_2484_3243" x1="15.3198" y1="29.1626" x2="26.5366" y2="26.1359"
        gradientUnits="userSpaceOnUse">
        <stop stop-color="#1C64F2" />
        <stop offset="1" stop-color="#0092FF" />
      </linearGradient>
      <linearGradient id="paint4_linear_2484_3243" x1="7.26881" y1="16.1827" x2="15.2325" y2="24.4347"
        gradientUnits="userSpaceOnUse">
        <stop stop-color="#1724C9" />
        <stop offset="1" stop-color="#1C64F2" />
      </linearGradient>
      <linearGradient id="paint5_linear_2484_3243" x1="25.4505" y1="22.1356" x2="31.007" y2="10.9345"
        gradientUnits="userSpaceOnUse">
        <stop stop-color="#0092FF" />
        <stop offset="1" stop-color="#45B2FF" />
      </linearGradient>
      <linearGradient id="paint6_linear_2484_3243" x1="5.36387" y1="9.63067" x2="2.39054" y2="20.8063"
        gradientUnits="userSpaceOnUse">
        <stop stop-color="#1C64F2" />
        <stop offset="1" stop-color="#0092FF" />
      </linearGradient>
      <linearGradient id="paint7_linear_2484_3243" x1="20.5431" y1="9.09912" x2="9.67768" y2="11.8044"
        gradientUnits="userSpaceOnUse">
        <stop stop-color="#1724C9" />
        <stop offset="1" stop-color="#1C64F2" />
      </linearGradient>
      <linearGradient id="paint8_linear_2484_3243" x1="6.40679" y1="21.8566" x2="13.3326" y2="32.2745"
        gradientUnits="userSpaceOnUse">
        <stop stop-color="#0092FF" />
        <stop offset="1" stop-color="#45B2FF" />
      </linearGradient>
    </defs>
  </symbol>

  <symbol id="member" viewBox="0 0 64 64">
    <g id="Layer_3">
      <g>
        <g id="ARC_424_">
          <g>
            <path
              d="m14.186 42.406c-.047 0-.095-.003-.144-.01-2.285-.33-4.477-1.047-6.513-2.132-.487-.26-.672-.866-.412-1.354.261-.486.864-.671 1.354-.412 1.83.977 3.801 1.621 5.856 1.917.547.079.926.586.848 1.133-.072.499-.5.858-.989.858z" />
          </g>
        </g>
        <g id="ARC_423_">
          <g>
            <path
              d="m49.814 42.406c-.489 0-.917-.359-.989-.857-.078-.547.301-1.054.848-1.133 2.056-.296 4.026-.94 5.856-1.917.491-.259 1.093-.074 1.354.412.26.487.075 1.094-.412 1.354-2.036 1.085-4.228 1.802-6.513 2.132-.049.006-.097.009-.144.009z" />
          </g>
        </g>
        <g id="ARC_422_">
          <g>
            <path
              d="m39.354 33.429c-.188 0-.377-.053-.545-.162-.463-.302-.594-.921-.292-1.384 1.417-2.173 3.811-3.471 6.405-3.471.553 0 1 .447 1 1s-.447 1-1 1c-1.916 0-3.684.958-4.729 2.563-.191.294-.511.454-.839.454z" />
          </g>
        </g>
        <g id="CIRCLE_38_">
          <g>
            <path
              d="m47.139 30.412c-3.545 0-6.539-2.994-6.539-6.538s2.994-6.538 6.539-6.538c3.544 0 6.538 2.994 6.538 6.538s-2.994 6.538-6.538 6.538zm0-11.076c-2.46 0-4.539 2.078-4.539 4.538s2.079 4.538 4.539 4.538 4.538-2.078 4.538-4.538-2.078-4.538-4.538-4.538z" />
          </g>
        </g>
        <g id="ARC_421_">
          <g>
            <path
              d="m56 37.059c-.553 0-1-.447-1-1 0-3.113-2.533-5.646-5.646-5.646-.553 0-1-.447-1-1s.447-1 1-1c4.216 0 7.646 3.431 7.646 7.646 0 .552-.447 1-1 1z" />
          </g>
        </g>
        <g id="LINE_818_">
          <g>
            <path d="m49.354 30.412h-4.431c-.553 0-1-.447-1-1s.447-1 1-1h4.431c.553 0 1 .447 1 1s-.448 1-1 1z" />
          </g>
        </g>
        <g id="LINE_817_">
          <g>
            <path d="m56 40.382c-.553 0-1-.447-1-1v-3.323c0-.553.447-1 1-1s1 .447 1 1v3.323c0 .553-.447 1-1 1z" />
          </g>
        </g>
        <g id="ARC_420_">
          <g>
            <path
              d="m20.185 41.12c-.553 0-1-.447-1-1 0-5.438 4.424-9.861 9.861-9.861.553 0 1 .447 1 1s-.447 1-1 1c-4.335 0-7.861 3.526-7.861 7.861 0 .553-.448 1-1 1z" />
          </g>
        </g>
        <g id="LINE_816_">
          <g>
            <path d="m34.954 32.259h-5.908c-.553 0-1-.447-1-1s.447-1 1-1h5.908c.553 0 1 .447 1 1s-.447 1-1 1z" />
          </g>
        </g>
        <g id="ARC_419_">
          <g>
            <path
              d="m24.646 33.429c-.327 0-.647-.16-.839-.454-1.046-1.604-2.813-2.563-4.729-2.563-.553 0-1-.447-1-1s.447-1 1-1c2.595 0 4.988 1.298 6.405 3.471.302.463.171 1.082-.292 1.384-.169.109-.358.162-.545.162z" />
          </g>
        </g>
        <g id="LINE_815_">
          <g>
            <path d="m20.185 45.551c-.553 0-1-.447-1-1v-4.431c0-.553.447-1 1-1s1 .447 1 1v4.431c0 .553-.448 1-1 1z" />
          </g>
        </g>
        <g id="CIRCLE_37_">
          <g>
            <path
              d="m32 32.259c-4.545 0-8.385-3.84-8.385-8.385s3.84-8.385 8.385-8.385 8.385 3.84 8.385 8.385-3.84 8.385-8.385 8.385zm0-14.77c-3.461 0-6.385 2.924-6.385 6.385s2.924 6.385 6.385 6.385 6.385-2.924 6.385-6.385-2.924-6.385-6.385-6.385z" />
          </g>
        </g>
        <g id="ARC_418_">
          <g>
            <path
              d="m43.815 41.12c-.553 0-1-.447-1-1 0-4.335-3.526-7.861-7.861-7.861-.553 0-1-.447-1-1s.447-1 1-1c5.438 0 9.861 4.424 9.861 9.861 0 .553-.447 1-1 1z" />
          </g>
        </g>
        <g id="LINE_814_">
          <g>
            <path d="m43.815 45.551c-.553 0-1-.447-1-1v-4.431c0-.553.447-1 1-1s1 .447 1 1v4.431c0 .553-.447 1-1 1z" />
          </g>
        </g>
        <g id="ARC_417_">
          <g>
            <path
              d="m32 48.511c-4.22 0-8.439-1.026-12.286-3.077-.487-.261-.672-.866-.412-1.354.261-.486.863-.671 1.354-.412 7.104 3.789 15.586 3.789 22.689 0 .49-.259 1.094-.074 1.354.412.26.487.075 1.093-.412 1.354-3.848 2.05-8.067 3.077-12.287 3.077z" />
          </g>
        </g>
        <g id="CIRCLE_36_">
          <g>
            <path
              d="m16.861 30.412c-3.544 0-6.538-2.994-6.538-6.538s2.994-6.538 6.538-6.538 6.538 2.994 6.538 6.538-2.994 6.538-6.538 6.538zm0-11.076c-2.46 0-4.538 2.078-4.538 4.538s2.078 4.538 4.538 4.538 4.538-2.078 4.538-4.538-2.078-4.538-4.538-4.538z" />
          </g>
        </g>
        <g id="ARC_416_">
          <g>
            <path
              d="m8 37.059c-.553 0-1-.447-1-1 0-4.216 3.431-7.646 7.646-7.646.553 0 1 .447 1 1s-.447 1-1 1c-3.113-.001-5.646 2.532-5.646 5.646 0 .552-.447 1-1 1z" />
          </g>
        </g>
        <g id="LINE_813_">
          <g>
            <path d="m19.077 30.412h-4.431c-.553 0-1-.447-1-1s.447-1 1-1h4.431c.553 0 1 .447 1 1s-.447 1-1 1z" />
          </g>
        </g>
        <g id="LINE_812_">
          <g>
            <path d="m8 40.382c-.553 0-1-.447-1-1v-3.323c0-.553.447-1 1-1s1 .447 1 1v3.323c0 .553-.447 1-1 1z" />
          </g>
        </g>
      </g>
    </g>
  </symbol>

  <symbol id="money" viewBox="0 0 682.66669 682.66669">
    <clipPath clipPathUnits="userSpaceOnUse" id="clipPath3200">
      <path d="M 0,512 H 512 V 0 H 0 Z" id="path3198" />
    </clipPath>
    <g id="g3192" transform="matrix(1.3333333,0,0,-1.3333333,0,682.66667)">
      <g id="g3194">
        <g id="g3196" clip-path="url(#clipPath3200)">
          <g id="g3202" transform="translate(325.0332,130.8486)">
            <path d="m 0,0 -80.683,-102.861 c -5.812,-7.41 -16.53,-8.722 -23.947,-2.932 l -24.54,19.157"
              style="fill:none;stroke:#060606;stroke-width:15;stroke-linecap:round;stroke-linejoin:round;stroke-miterlimit:10;stroke-dasharray:none;stroke-opacity:1"
              id="path3204" />
          </g>
          <g id="g3206" transform="translate(164.3818,303.4497)">
            <path
              d="m 0,0 152.568,194.507 c 5.812,7.41 16.53,8.722 23.948,2.932 L 333.244,75.088 c 7.428,-5.798 8.732,-16.521 2.911,-23.942 L 300.775,6.041"
              style="fill:none;stroke:#060606;stroke-width:15;stroke-linecap:round;stroke-linejoin:round;stroke-miterlimit:10;stroke-dasharray:none;stroke-opacity:1"
              id="path3208" />
          </g>
          <g id="g3210" transform="translate(294.0918,390.291)">
            <path
              d="m 0,0 66.45,44.489 c 7.827,5.24 18.418,3.155 23.662,-4.659 l 110.725,-164.993 c 5.249,-7.823 3.151,-18.423 -4.685,-23.67 l -345.133,-231.069 c -7.828,-5.24 -18.417,-3.155 -23.662,4.659 l -110.724,164.993 c -5.25,7.823 -3.153,18.423 4.683,23.67 l 243.843,163.254"
              style="fill:none;stroke:#060606;stroke-width:15;stroke-linecap:round;stroke-linejoin:round;stroke-miterlimit:10;stroke-dasharray:none;stroke-opacity:1"
              id="path3212" />
          </g>
          <g id="g3214" transform="translate(235.4199,133.335)">
            <path
              d="m 0,0 c -22.939,4.467 -44.164,17.702 -58.206,38.626 -27.996,41.717 -16.837,98.2 24.923,126.158 C 8.477,192.743 65.024,181.589 93.02,139.873 121.015,98.156 109.856,41.674 68.097,13.715 59.98,8.281 51.306,4.325 42.391,1.783"
              style="fill:none;stroke:#060606;stroke-width:15;stroke-linecap:round;stroke-linejoin:round;stroke-miterlimit:10;stroke-dasharray:none;stroke-opacity:1"
              id="path3216" />
          </g>
          <g id="g3218" transform="translate(62.6387,235.332)">
            <path
              d="m 0,0 c 22.741,-33.888 13.678,-79.77 -20.245,-102.481 l -31.684,47.212 c -5.243,7.813 -3.139,18.4 4.698,23.647 z"
              style="fill:none;stroke:#060606;stroke-width:15;stroke-linecap:round;stroke-linejoin:round;stroke-miterlimit:10;stroke-dasharray:none;stroke-opacity:1"
              id="path3220" />
          </g>
          <g id="g3222" transform="translate(89.8516,62.1318)">
            <path
              d="M 0,0 C 33.995,22.759 79.949,13.797 102.643,-20.019 L 55.281,-51.728 c -7.838,-5.247 -18.441,-3.168 -23.684,4.645 z"
              style="fill:none;stroke:#060606;stroke-width:15;stroke-linecap:round;stroke-linejoin:round;stroke-miterlimit:10;stroke-dasharray:none;stroke-opacity:1"
              id="path3224" />
          </g>
          <g id="g3226" transform="translate(443.0361,209.8047)">
            <path
              d="M 0,0 C -22.741,33.888 -13.678,79.77 20.245,102.481 L 51.929,55.269 c 5.243,-7.813 3.139,-18.4 -4.698,-23.647 z"
              style="fill:none;stroke:#060606;stroke-width:15;stroke-linecap:round;stroke-linejoin:round;stroke-miterlimit:10;stroke-dasharray:none;stroke-opacity:1"
              id="path3228" />
          </g>
          <g id="g3230" transform="translate(415.8232,383.0049)">
            <path
              d="m 0,0 c -33.995,-22.759 -79.949,-13.797 -102.643,20.019 l 47.362,31.709 c 7.838,5.247 18.441,3.168 23.684,-4.645 z"
              style="fill:none;stroke:#060606;stroke-width:15;stroke-linecap:round;stroke-linejoin:round;stroke-miterlimit:10;stroke-dasharray:none;stroke-opacity:1"
              id="path3232" />
          </g>
          <g id="g3234" transform="translate(367.042,299.0527)">
            <path d="M 0,0 35.307,23.638"
              style="fill:none;stroke:#060606;stroke-width:15;stroke-linecap:round;stroke-linejoin:round;stroke-miterlimit:10;stroke-dasharray:none;stroke-opacity:1"
              id="path3236" />
          </g>
          <g id="g3238" transform="translate(103.3047,122.4785)">
            <path d="M 0,0 35.306,23.638"
              style="fill:none;stroke:#060606;stroke-width:15;stroke-linecap:round;stroke-linejoin:round;stroke-miterlimit:10;stroke-dasharray:none;stroke-opacity:1"
              id="path3240" />
          </g>
          <g id="g3242" transform="translate(244.3262,269.4443)">
            <path
              d="m 0,0 c 0,0 -14.571,2.252 -25.662,-11.218 -10.184,-12.368 -1.677,-31.884 11.537,-32.858 7.588,-0.559 17.223,1.255 29.7,4.455 27.927,7.163 40.886,-30.178 18.014,-45.713 -8.926,-6.062 -13.499,-8.301 -24.821,-8.438"
              style="fill:none;stroke:#060606;stroke-width:15;stroke-linecap:round;stroke-linejoin:round;stroke-miterlimit:10;stroke-dasharray:none;stroke-opacity:1"
              id="path3244" />
          </g>
          <g id="g3246" transform="translate(217.2471,274.5132)">
            <path d="M 0,0 68.445,-101.993"
              style="fill:none;stroke:#060606;stroke-width:15;stroke-linecap:round;stroke-linejoin:round;stroke-miterlimit:10;stroke-dasharray:none;stroke-opacity:1"
              id="path3248" />
          </g>
        </g>
      </g>
    </g>
  </symbol>

  <symbol id="nav" viewBox="0 0 24 24">
    <path d="m2.5 6.5h18m-18 5h18m-18 5h18" fill="none" stroke="#000" stroke-linecap="round" stroke-linejoin="round" />
  </symbol>

  <symbol id="next" viewBox="0 0 20 20">
    <path fill-rule="evenodd"
      d="M7.293 14.707a1 1 0 010-1.414L10.586 10 7.293 6.707a1 1 0 011.414-1.414l4 4a1 1 0 010 1.414l-4 4a1 1 0 01-1.414 0z"
      clip-rule="evenodd"></path>
  </symbol>

  <symbol id="organization-description" viewBox="0 0 24 24">
    <g>
      <path
        d="m22.5 6h-21c-.827 0-1.5-.673-1.5-1.5v-3c0-.827.673-1.5 1.5-1.5h21c.827 0 1.5.673 1.5 1.5v3c0 .827-.673 1.5-1.5 1.5zm-21-5c-.275 0-.5.224-.5.5v3c0 .276.225.5.5.5h21c.275 0 .5-.224.5-.5v-3c0-.276-.225-.5-.5-.5z" />
    </g>
    <g>
      <path
        d="m21 15c-1.654 0-3-1.346-3-3s1.346-3 3-3 3 1.346 3 3-1.346 3-3 3zm0-5c-1.103 0-2 .897-2 2s.897 2 2 2 2-.897 2-2-.897-2-2-2z" />
    </g>
    <g>
      <path
        d="m21 24c-1.654 0-3-1.346-3-3s1.346-3 3-3 3 1.346 3 3-1.346 3-3 3zm0-5c-1.103 0-2 .897-2 2s.897 2 2 2 2-.897 2-2-.897-2-2-2z" />
    </g>
    <g>
      <path d="m15.5 11h-15c-.276 0-.5-.224-.5-.5s.224-.5.5-.5h15c.276 0 .5.224.5.5s-.224.5-.5.5z" />
    </g>
    <g>
      <path d="m15.5 14h-15c-.276 0-.5-.224-.5-.5s.224-.5.5-.5h15c.276 0 .5.224.5.5s-.224.5-.5.5z" />
    </g>
    <g>
      <path d="m15.5 20h-15c-.276 0-.5-.224-.5-.5s.224-.5.5-.5h15c.276 0 .5.224.5.5s-.224.5-.5.5z" />
    </g>
    <g>
      <path d="m15.5 23h-15c-.276 0-.5-.224-.5-.5s.224-.5.5-.5h15c.276 0 .5.224.5.5s-.224.5-.5.5z" />
    </g>
  </symbol>

  <symbol id="organization-name" viewBox="0 0 24 24">
    <g>
      <path
        d="m21.5 21h-19c-1.378 0-2.5-1.122-2.5-2.5v-13c0-1.378 1.122-2.5 2.5-2.5h19c1.378 0 2.5 1.122 2.5 2.5v13c0 1.378-1.122 2.5-2.5 2.5zm-19-17c-.827 0-1.5.673-1.5 1.5v13c0 .827.673 1.5 1.5 1.5h19c.827 0 1.5-.673 1.5-1.5v-13c0-.827-.673-1.5-1.5-1.5z" />
    </g>
    <g>
      <path
        d="m7.5 12c-1.378 0-2.5-1.122-2.5-2.5s1.122-2.5 2.5-2.5 2.5 1.122 2.5 2.5-1.122 2.5-2.5 2.5zm0-4c-.827 0-1.5.673-1.5 1.5s.673 1.5 1.5 1.5 1.5-.673 1.5-1.5-.673-1.5-1.5-1.5z" />
    </g>
    <g>
      <path
        d="m11.5 17c-.276 0-.5-.224-.5-.5v-1c0-.827-.673-1.5-1.5-1.5h-4c-.827 0-1.5.673-1.5 1.5v1c0 .276-.224.5-.5.5s-.5-.224-.5-.5v-1c0-1.378 1.122-2.5 2.5-2.5h4c1.378 0 2.5 1.122 2.5 2.5v1c0 .276-.224.5-.5.5z" />
    </g>
    <g>
      <path d="m20.5 9h-6c-.276 0-.5-.224-.5-.5s.224-.5.5-.5h6c.276 0 .5.224.5.5s-.224.5-.5.5z" />
    </g>
    <g>
      <path d="m20.5 13h-6c-.276 0-.5-.224-.5-.5s.224-.5.5-.5h6c.276 0 .5.224.5.5s-.224.5-.5.5z" />
    </g>
    <g>
      <path d="m20.5 17h-6c-.276 0-.5-.224-.5-.5s.224-.5.5-.5h6c.276 0 .5.224.5.5s-.224.5-.5.5z" />
    </g>
  </symbol>

  <symbol id="organization" viewBox="0 0 64 64">
    <path
      d="M57,11a4,4,0,0,0-4-4,3.95,3.95,0,0,0-1.97.54A30.986,30.986,0,0,0,16.5,5.15l1,1.731A28.934,28.934,0,0,1,49.574,8.967,3.959,3.959,0,0,0,49,11a4,4,0,0,0,8,0Zm-6,0a2,2,0,1,1,2,2A2,2,0,0,1,51,11Z" />
    <path
      d="M58.85,16.5l-1.731,1a28.934,28.934,0,0,1-2.086,32.073A3.959,3.959,0,0,0,53,49a4,4,0,1,0,4,4,3.95,3.95,0,0,0-.54-1.97A30.986,30.986,0,0,0,58.85,16.5ZM53,55a2,2,0,1,1,2-2A2,2,0,0,1,53,55Z" />
    <path
      d="M32,61a29.007,29.007,0,0,1-17.574-5.967A3.959,3.959,0,0,0,15,53a4,4,0,1,0-4,4,3.95,3.95,0,0,0,1.97-.54A30.986,30.986,0,0,0,47.5,58.85l-1-1.731A28.974,28.974,0,0,1,32,61ZM11,55a2,2,0,1,1,2-2A2,2,0,0,1,11,55Z" />
    <path
      d="M8.967,14.426A3.959,3.959,0,0,0,11,15a4,4,0,1,0-4-4,3.95,3.95,0,0,0,.54,1.97A30.986,30.986,0,0,0,5.15,47.5l1.731-1A28.934,28.934,0,0,1,8.967,14.426ZM11,9a2,2,0,1,1-2,2A2,2,0,0,1,11,9Z" />
    <path
      d="M52,27H42V22a1,1,0,0,0,1-1V17a1,1,0,0,0-1-1H22a1,1,0,0,0-1,1v4a1,1,0,0,0,1,1v5H12a1,1,0,0,0-1,1v4a1,1,0,0,0,1,1V45a1,1,0,0,0,1,1h9a1,1,0,0,0,1,1H41a1,1,0,0,0,1-1h9a1,1,0,0,0,1-1V33a1,1,0,0,0,1-1V28A1,1,0,0,0,52,27ZM22,44H14V33h8Zm0-13H13V29h9ZM34.5,45h-5V40h5ZM40,45H36.5V39a1,1,0,0,0-1-1h-7a1,1,0,0,0-1,1v6H24V22H40Zm1-25H23V18H41Zm9,24H42V33h8Zm1-13H42V29h9Z" />
    <path d="M27,29h3a1,1,0,0,0,1-1V25a1,1,0,0,0-1-1H27a1,1,0,0,0-1,1v3A1,1,0,0,0,27,29Zm1-3h1v1H28Z" />
    <path d="M34,29h3a1,1,0,0,0,1-1V25a1,1,0,0,0-1-1H34a1,1,0,0,0-1,1v3A1,1,0,0,0,34,29Zm1-3h1v1H35Z" />
    <path d="M27,36h3a1,1,0,0,0,1-1V32a1,1,0,0,0-1-1H27a1,1,0,0,0-1,1v3A1,1,0,0,0,27,36Zm1-3h1v1H28Z" />
    <path d="M34,36h3a1,1,0,0,0,1-1V32a1,1,0,0,0-1-1H34a1,1,0,0,0-1,1v3A1,1,0,0,0,34,36Zm1-3h1v1H35Z" />
  </symbol>

  <symbol id="organizations" viewBox="0 0 64 64">
    <g>
      <path
        d="m33.491 34.657c-.058 0-.116-.005-.175-.016-.57-.101-1.154-.151-1.735-.151-.552 0-1-.447-1-1s.448-1 1-1c.698 0 1.399.062 2.083.183.544.096.907.614.811 1.158-.085.485-.507.826-.984.826z" />
    </g>
    <g>
      <path
        d="m33.49 33.419c-.552 0-1-.447-1-1 0-.698.062-1.399.182-2.083.096-.544.617-.912 1.159-.811.544.096.907.614.811 1.158-.101.57-.151 1.153-.151 1.735-.001.554-.448 1.001-1.001 1.001z" />
    </g>
    <g>
      <path
        d="m32.419 31.51c-.698 0-1.398-.062-2.083-.183-.544-.096-.907-.614-.811-1.158s.617-.91 1.159-.811c.57.101 1.154.151 1.735.151.552 0 1 .447 1 1s-.448 1.001-1 1.001z" />
    </g>
    <g>
      <path
        d="m30.344 34.49c-.057 0-.116-.005-.174-.015-.544-.097-.907-.614-.812-1.158.101-.573.152-1.157.152-1.736 0-.553.448-1 1-1s1 .447 1 1c0 .695-.061 1.396-.182 2.082-.086.485-.508.827-.984.827z" />
    </g>
    <g>
      <path
        d="m51.849 26.884c-.31 0-.615-.144-.811-.413l-.064-.089c-.324-.447-.225-1.072.223-1.396.445-.325 1.073-.225 1.396.223l.064.089c.324.447.225 1.072-.223 1.396-.176.128-.382.19-.585.19z" />
    </g>
    <g>
      <path
        d="m25.796 13.217c-.308 0-.611-.142-.808-.408-.326-.445-.23-1.071.215-1.398l.088-.064c.446-.328 1.071-.229 1.398.215.326.445.23 1.071-.215 1.398l-.088.064c-.178.13-.385.193-.59.193z" />
    </g>
    <g>
      <path
        d="m12.218 39.205c-.309 0-.612-.142-.809-.41l-.065-.089c-.326-.445-.229-1.071.218-1.397.445-.325 1.071-.229 1.397.218l.065.089c.326.445.229 1.071-.218 1.397-.177.13-.384.192-.588.192z" />
    </g>
    <g>
      <path
        d="m38.117 52.848c-.31 0-.615-.144-.811-.413-.324-.447-.225-1.072.223-1.396l.089-.064c.446-.326 1.072-.224 1.396.223s.225 1.072-.223 1.396l-.089.064c-.176.128-.382.19-.585.19z" />
    </g>
    <g>
      <path
        d="m52 23.5c-.553 0-1-.447-1-1s.447-1 1-1c.306 0 .532-.091.692-.277.153-.179.242-.442.242-.723 0-.167-.045-1-.935-1-.553 0-1-.447-1-1s.447-1 1-1c1.927 0 2.935 1.509 2.935 3 0 .763-.258 1.482-.726 2.027-.538.627-1.323.973-2.208.973z" />
    </g>
    <g>
      <path
        d="m39.051 15.5c-.451 0-.86-.307-.971-.765-.13-.536.199-1.077.736-1.207 1.712-.415 2.977-1.872 3.148-3.626.055-.55.537-.949 1.093-.897.549.054.951.543.897 1.093-.254 2.6-2.13 4.759-4.668 5.374-.078.019-.157.028-.235.028z" />
    </g>
    <g>
      <path
        d="m48.191 19.5c-.553 0-1-.447-1-1s.447-1 1-1c.306 0 .532-.091.692-.277.153-.179.242-.442.242-.723 0-.167-.045-1-.935-1-.553 0-1-.447-1-1s.447-1 1-1c1.927 0 2.935 1.509 2.935 3 0 .763-.258 1.482-.726 2.027-.538.627-1.323.973-2.208.973z" />
    </g>
    <g>
      <path
        d="m50.259 27.5c-.553 0-1-.447-1-1s.447-1 1-1c.306 0 .532-.091.692-.277.153-.179.242-.442.242-.723 0-.167-.045-1-.935-1-.553 0-1-.447-1-1s.447-1 1-1c1.927 0 2.935 1.509 2.935 3 0 .763-.258 1.482-.726 2.027-.538.627-1.323.973-2.208.973z" />
    </g>
    <g>
      <path
        d="m44.084 31.51c-.51 0-.945-.388-.994-.905-.053-.55.351-1.038.9-1.09.855-.082.86-.89.854-1.051-.008-.161-.09-.964-.95-.964-.553 0-1-.447-1-1s.447-1 1-1c1.846 0 2.88 1.443 2.947 2.868.068 1.427-.824 2.962-2.661 3.137-.033.004-.065.005-.096.005z" />
    </g>
    <g>
      <path d="m50.259 27.5h-11.308c-.553 0-1-.447-1-1s.447-1 1-1h11.308c.553 0 1 .447 1 1s-.447 1-1 1z" />
    </g>
    <g>
      <path d="m52 23.5h-11.915c-.553 0-1-.447-1-1s.447-1 1-1h11.915c.553 0 1 .447 1 1s-.447 1-1 1z" />
    </g>
    <g>
      <path d="m52 19.5h-12.981c-.553 0-1-.447-1-1s.447-1 1-1h12.981c.553 0 1 .447 1 1s-.447 1-1 1z" />
    </g>
    <g>
      <path d="m48.191 15.5h-13.015c-.553 0-1-.447-1-1s.447-1 1-1h13.016c.553 0 1 .447 1 1s-.448 1-1.001 1z" />
    </g>
    <g>
      <path
        d="m25.884 13.152c-.307 0-.609-.141-.805-.405-.328-.444-.234-1.07.21-1.399 2.079-1.536 4.544-2.348 7.13-2.348.552 0 1 .447 1 1s-.448 1-1 1c-2.155 0-4.209.677-5.941 1.957-.179.132-.388.195-.594.195z" />
    </g>
    <g>
      <path d="m44.085 31.51h-11.666c-.552 0-1-.447-1-1s.448-1 1-1h11.666c.553 0 1 .447 1 1s-.447 1-1 1z" />
    </g>
    <g>
      <path d="m42.96 11h-10.541c-.552 0-1-.447-1-1s.448-1 1-1h10.541c.553 0 1 .447 1 1s-.447 1-1 1z" />
    </g>
    <g>
      <path
        d="m22.5 13c-.552 0-1-.447-1-1 0-.89-.833-.935-1-.935s-1 .045-1 .935c0 .553-.448 1-1 1s-1-.447-1-1c0-3.854 6-3.854 6 0 0 .553-.448 1-1 1z" />
    </g>
    <g>
      <path
        d="m14.499 25.948c-.451 0-.86-.307-.971-.765-.416-1.712-1.873-2.977-3.625-3.148-.55-.054-.952-.543-.898-1.093.053-.55.536-.948 1.092-.897 2.599.254 4.759 2.13 5.375 4.668.13.536-.199 1.077-.736 1.207-.079.019-.159.028-.237.028z" />
    </g>
    <g>
      <path
        d="m18.5 16.809c-.552 0-1-.447-1-1 0-.89-.833-.935-1-.935s-1 .045-1 .935c0 .553-.448 1-1 1s-1-.447-1-1c0-3.854 6-3.854 6 0 0 .552-.448 1-1 1z" />
    </g>
    <g>
      <path
        d="m26.5 14.741c-.552 0-1-.447-1-1 0-.89-.833-.935-1-.935s-1 .045-1 .935c0 .553-.448 1-1 1s-1-.447-1-1c0-3.854 6-3.854 6 0 0 .553-.448 1-1 1z" />
    </g>
    <g>
      <path
        d="m26.5 21.106c-.552 0-1-.447-1-1 0-1.845 1.443-2.879 2.868-2.947 1.421-.053 2.961.824 3.137 2.661.052.55-.351 1.038-.9 1.09-.55.06-1.038-.351-1.091-.9-.082-.855-.893-.868-1.051-.853-.161.008-.963.089-.963.949 0 .553-.448 1-1 1z" />
    </g>
    <g>
      <path d="m26.5 26.049c-.552 0-1-.447-1-1v-11.308c0-.553.448-1 1-1s1 .447 1 1v11.308c0 .553-.448 1-1 1z" />
    </g>
    <g>
      <path d="m22.5 24.915c-.552 0-1-.447-1-1v-11.915c0-.553.448-1 1-1s1 .447 1 1v11.915c0 .553-.448 1-1 1z" />
    </g>
    <g>
      <path d="m18.5 25.981c-.552 0-1-.447-1-1v-12.981c0-.553.448-1 1-1s1 .447 1 1v12.981c0 .553-.448 1-1 1z" />
    </g>
    <g>
      <path d="m14.5 29.824c-.552 0-1-.447-1-1v-13.015c0-.553.448-1 1-1s1 .447 1 1v13.016c0 .552-.448.999-1 .999z" />
    </g>
    <g>
      <path
        d="m12.153 39.116c-.307 0-.609-.141-.805-.406-1.515-2.049-2.348-4.581-2.348-7.129 0-.553.448-1 1-1s1 .447 1 1c0 2.124.695 4.233 1.956 5.941.328.443.234 1.07-.21 1.398-.179.133-.387.196-.593.196z" />
    </g>
    <g>
      <path d="m30.51 32.581c-.552 0-1-.447-1-1v-11.666c0-.553.448-1 1-1s1 .447 1 1v11.666c0 .553-.448 1-1 1z" />
    </g>
    <g>
      <path d="m10 32.581c-.552 0-1-.447-1-1v-10.541c0-.553.448-1 1-1s1 .447 1 1v10.541c0 .553-.448 1-1 1z" />
    </g>
    <g>
      <path
        d="m12 46.5c-1.926 0-2.935-1.509-2.935-3 0-.763.258-1.482.726-2.027.54-.627 1.324-.973 2.209-.973.552 0 1 .447 1 1s-.448 1-1 1c-.306 0-.532.091-.692.277-.154.179-.242.442-.242.723 0 .167.045 1 .935 1 .552 0 1 .447 1 1s-.449 1-1.001 1z" />
    </g>
    <g>
      <path
        d="m21.041 55c-.032 0-.065-.002-.098-.005-.549-.054-.952-.542-.898-1.092.253-2.6 2.129-4.76 4.667-5.375.536-.135 1.077.198 1.208.736.13.536-.199 1.077-.736 1.207-1.712.415-2.978 1.872-3.148 3.625-.051.517-.486.904-.995.904z" />
    </g>
    <g>
      <path
        d="m15.808 50.5c-1.927 0-2.935-1.509-2.935-3 0-.763.257-1.483.725-2.027.54-.627 1.324-.973 2.209-.973.552 0 1 .447 1 1s-.448 1-1 1c-.306 0-.533.091-.693.277-.154.179-.242.442-.242.723 0 .167.045 1 .935 1 .552 0 1 .447 1 1s-.447 1-.999 1z" />
    </g>
    <g>
      <path
        d="m13.741 42.5c-1.927 0-2.935-1.509-2.935-3 0-.763.257-1.483.725-2.027.54-.627 1.324-.973 2.209-.973.552 0 1 .447 1 1s-.448 1-1 1c-.306 0-.533.091-.693.277-.154.179-.242.442-.242.723 0 .167.045 1 .935 1 .552 0 1 .447 1 1s-.447 1-.999 1z" />
    </g>
    <g>
      <path
        d="m20.106 38.5c-1.845 0-2.879-1.442-2.947-2.867-.068-1.427.824-2.963 2.661-3.138.546-.07 1.038.351 1.091.9.052.55-.351 1.038-.9 1.09-.856.082-.861.891-.854 1.052s.089.963.949.963c.552 0 1 .447 1 1s-.448 1-1 1z" />
    </g>
    <g>
      <path d="m25.049 38.5h-11.308c-.552 0-1-.447-1-1s.448-1 1-1h11.308c.552 0 1 .447 1 1s-.448 1-1 1z" />
    </g>
    <g>
      <path d="m23.915 42.5h-11.915c-.552 0-1-.447-1-1s.448-1 1-1h11.915c.552 0 1 .447 1 1s-.448 1-1 1z" />
    </g>
    <g>
      <path d="m24.982 46.5h-12.982c-.552 0-1-.447-1-1s.448-1 1-1h12.982c.552 0 1 .447 1 1s-.448 1-1 1z" />
    </g>
    <g>
      <path d="m28.824 50.5h-13.016c-.552 0-1-.447-1-1s.448-1 1-1h13.016c.552 0 1 .447 1 1s-.448 1-1 1z" />
    </g>
    <g>
      <path
        d="m31.581 55c-.552 0-1-.447-1-1s.448-1 1-1c2.124 0 4.234-.694 5.94-1.956.445-.331 1.071-.233 1.398.209.329.444.234 1.07-.209 1.398-2.048 1.515-4.579 2.349-7.129 2.349z" />
    </g>
    <g>
      <path d="m31.581 34.49h-11.665c-.552 0-1-.447-1-1s.448-1 1-1h11.666c.552 0 1 .447 1 1s-.449 1-1.001 1z" />
    </g>
    <g>
      <path d="m31.581 55h-10.541c-.552 0-1-.447-1-1s.448-1 1-1h10.541c.552 0 1 .447 1 1s-.448 1-1 1z" />
    </g>
    <g>
      <path
        d="m43.5 54.935c-1.491 0-3-1.008-3-2.935 0-.553.447-1 1-1s1 .447 1 1c0 .89.833.935 1 .935s1-.045 1-.935c0-.553.447-1 1-1s1 .447 1 1c0 1.927-1.509 2.935-3 2.935z" />
    </g>
    <g>
      <path
        d="m54.001 43.96c-.032 0-.065-.002-.099-.005-2.6-.254-4.759-2.13-5.374-4.668-.13-.536.199-1.077.736-1.207.538-.131 1.078.199 1.207.736.415 1.712 1.872 2.977 3.626 3.148.549.054.951.543.897 1.093-.05.517-.484.903-.993.903z" />
    </g>
    <g>
      <path
        d="m47.5 51.126c-1.491 0-3-1.008-3-2.935 0-.553.447-1 1-1s1 .447 1 1c0 .89.833.935 1 .935s1-.045 1-.935c0-.553.447-1 1-1s1 .447 1 1c0 1.927-1.509 2.935-3 2.935z" />
    </g>
    <g>
      <path
        d="m39.5 53.193c-1.491 0-3-1.008-3-2.935 0-.553.447-1 1-1s1 .447 1 1c0 .89.833.935 1 .935s1-.045 1-.935c0-.553.447-1 1-1s1 .447 1 1c0 1.928-1.509 2.935-3 2.935z" />
    </g>
    <g>
      <path
        d="m35.48 46.845c-1.382 0-2.816-.894-2.986-2.665-.052-.55.351-1.038.901-1.09.56-.068 1.038.351 1.09.9.082.853.889.86 1.051.853.161-.008.964-.089.964-.949 0-.553.447-1 1-1s1 .447 1 1c0 1.845-1.442 2.879-2.868 2.947-.051.002-.102.004-.152.004z" />
    </g>
    <g>
      <path d="m37.5 51.259c-.553 0-1-.447-1-1v-11.308c0-.553.447-1 1-1s1 .447 1 1v11.308c0 .553-.447 1-1 1z" />
    </g>
    <g>
      <path d="m41.5 53c-.553 0-1-.447-1-1v-11.915c0-.553.447-1 1-1s1 .447 1 1v11.915c0 .553-.447 1-1 1z" />
    </g>
    <g>
      <path d="m45.5 53c-.553 0-1-.447-1-1v-12.981c0-.553.447-1 1-1s1 .447 1 1v12.981c0 .553-.447 1-1 1z" />
    </g>
    <g>
      <path d="m49.5 49.191c-.553 0-1-.447-1-1v-13.015c0-.553.447-1 1-1s1 .447 1 1v13.016c0 .552-.447.999-1 .999z" />
    </g>
    <g>
      <path
        d="m54 33.419c-.553 0-1-.447-1-1 0-2.124-.694-4.234-1.956-5.94-.329-.444-.235-1.07.209-1.398.444-.331 1.072-.233 1.398.209 1.515 2.049 2.349 4.58 2.349 7.13 0 .552-.447.999-1 .999z" />
    </g>
    <g>
      <path d="m33.49 45.085c-.552 0-1-.447-1-1v-11.666c0-.553.448-1 1-1 .553 0 1 .447 1 1v11.666c0 .553-.447 1-1 1z" />
    </g>
    <g>
      <path d="m54 43.96c-.553 0-1-.447-1-1v-10.541c0-.553.447-1 1-1s1 .447 1 1v10.541c0 .553-.447 1-1 1z" />
    </g>
  </symbol>

  <symbol id="pages" viewBox="0 0 20 20">
    <path fill-rule="evenodd"
      d="M6 2a2 2 0 00-2 2v12a2 2 0 002 2h8a2 2 0 002-2V7.414A2 2 0 0015.414 6L12 2.586A2 2 0 0010.586 2H6zm2 10a1 1 0 10-2 0v3a1 1 0 102 0v-3zm2-3a1 1 0 011 1v5a1 1 0 11-2 0v-5a1 1 0 011-1zm4-1a1 1 0 10-2 0v7a1 1 0 102 0V8z"
      clip-rule="evenodd"></path>
  </symbol>

  <symbol id="previous" viewBox="0 0 20 20">
    <path fill-rule="evenodd"
      d="M12.707 5.293a1 1 0 010 1.414L9.414 10l3.293 3.293a1 1 0 01-1.414 1.414l-4-4a1 1 0 010-1.414l4-4a1 1 0 011.414 0z"
      clip-rule="evenodd"></path>
  </symbol>

  <symbol id="reject" viewBox="0 0 512 512">
    <g>
      <path
        d="m256 0c-141.163 0-256 114.837-256 256s114.837 256 256 256 256-114.837 256-256-114.837-256-256-256zm111.963 331.762c10 10 10 26.212 0 36.212-5 4.988-11.55 7.487-18.1 7.487s-13.1-2.5-18.1-7.487l-75.763-75.774-75.762 75.775c-5 4.988-11.55 7.487-18.1 7.487s-13.1-2.5-18.1-7.487c-10-10-10-26.212 0-36.212l75.762-75.763-75.762-75.762c-10-10-10-26.213 0-36.213 10-9.988 26.2-9.988 36.2 0l75.762 75.775 75.762-75.775c10-9.988 26.2-9.988 36.2 0 10 10 10 26.213 0 36.213l-75.762 75.762z" />
    </g>
  </symbol>

  <symbol id="right-arrow" viewBox="0 0 20 20">
    <path fill-rule="evenodd"
      d="M7.293 14.707a1 1 0 010-1.414L10.586 10 7.293 6.707a1 1 0 011.414-1.414l4 4a1 1 0 010 1.414l-4 4a1 1 0 01-1.414 0z"
      clip-rule="evenodd"></path>
  </symbol>

  <symbol id="role" viewBox="0 0 64 64">
    <g id="Cut_line_icon" data-name="Cut line icon">
      <path
        d="m50.971 35.9h-.018a11.675 11.675 0 0 0 -8.308 3.455 12.045 12.045 0 0 0 -1.467 1.779l-8.426-4.913v-8.16a11.779 11.779 0 1 0 -10.1-18.936.75.75 0 0 0 1.188.916 10.281 10.281 0 1 1 15.548 13.407 7.952 7.952 0 0 0 -4.756-5.4 4.765 4.765 0 1 0 -5.395-.213 8.015 8.015 0 0 0 -5.2 4.991 10.284 10.284 0 0 1 -1.524-10.517.75.75 0 1 0 -1.381-.584 11.779 11.779 0 0 0 10.117 16.338v8.159l-8.419 4.911a12.059 12.059 0 0 0 -1.447-1.761 11.689 11.689 0 0 0 -8.333-3.472h-.01a11.785 11.785 0 1 0 11.4 14.809.75.75 0 1 0 -1.44-.415 10.929 10.929 0 0 1 -2.277 4.2 7.929 7.929 0 0 0 -4.978-5.184 4.767 4.767 0 1 0 -5.412 0 7.971 7.971 0 0 0 -4.974 5.19 10.262 10.262 0 0 1 7.682-17.1h.008a10.294 10.294 0 0 1 10.271 10.288.749.749 0 0 0 .746.753.749.749 0 0 0 .75-.746 11.579 11.579 0 0 0 -1.24-5.264l8.424-4.911 8.427 4.914a11.613 11.613 0 0 0 -1.249 5.258 11.785 11.785 0 1 0 11.793-11.792zm-37.931 6.221a3.27 3.27 0 1 1 -3.27 3.271 3.269 3.269 0 0 1 3.27-3.271zm0 8.22a6.466 6.466 0 0 1 6.424 5.364 10.233 10.233 0 0 1 -12.846 0 6.488 6.488 0 0 1 6.422-5.364zm19.053-39.587h.136a3.264 3.264 0 0 1 3.123 3.4 3.27 3.27 0 0 1 -3.258 3.135c-.044 0-.089 0-.135 0a3.27 3.27 0 0 1 .134-6.537zm-.2 8.215a6.475 6.475 0 0 1 6.186 5.621 10.223 10.223 0 0 1 -6.071 2.01h-.013a10.228 10.228 0 0 1 -6.726-2.523 6.527 6.527 0 0 1 6.623-5.108zm12.656 36.731a6.527 6.527 0 0 1 12.843 0 10.219 10.219 0 0 1 -12.843 0zm6.421-7.042a3.27 3.27 0 1 1 3.26-3.269 3.274 3.274 0 0 1 -3.26 3.272zm7.682 5.83a7.937 7.937 0 0 0 -4.977-5.183 4.766 4.766 0 1 0 -5.41.005 8 8 0 0 0 -4.974 5.19 10.278 10.278 0 0 1 7.663-17.1h.016a10.265 10.265 0 0 1 7.682 17.09z" />
    </g>
  </symbol>

  <symbol id="save" viewBox="0 0 32 32">
    <path
      d="M30.71,7.29l-6-6A1,1,0,0,0,24,1H4A3,3,0,0,0,1,4V28a3,3,0,0,0,3,3H28a3,3,0,0,0,3-3V8A1,1,0,0,0,30.71,7.29ZM20,3V9H12V3ZM8,29V22a1,1,0,0,1,1-1H23a1,1,0,0,1,1,1v7Zm21-1a1,1,0,0,1-1,1H26V22a3,3,0,0,0-3-3H9a3,3,0,0,0-3,3v7H4a1,1,0,0,1-1-1V4A1,1,0,0,1,4,3h6V9a2,2,0,0,0,2,2h8a2,2,0,0,0,2-2V3h1.59L29,8.41Z" />
  </symbol>

  <symbol id="search" viewBox="0 0 20 20">
    <path
      d="M8 4a4 4 0 100 8 4 4 0 000-8zM2 8a6 6 0 1110.89 3.476l4.817 4.817a1 1 0 01-1.414 1.414l-4.816-4.816A6 6 0 012 8z"
      clip-rule="evenodd"></path>
  </symbol>

  <symbol id="settings" viewBox="0 0 20 20">
    <path clip-rule="evenodd" fill-rule="evenodd"
      d="M8.34 1.804A1 1 0 019.32 1h1.36a1 1 0 01.98.804l.295 1.473c.497.144.971.342 1.416.587l1.25-.834a1 1 0 011.262.125l.962.962a1 1 0 01.125 1.262l-.834 1.25c.245.445.443.919.587 1.416l1.473.294a1 1 0 01.804.98v1.361a1 1 0 01-.804.98l-1.473.295a6.95 6.95 0 01-.587 1.416l.834 1.25a1 1 0 01-.125 1.262l-.962.962a1 1 0 01-1.262.125l-1.25-.834a6.953 6.953 0 01-1.416.587l-.294 1.473a1 1 0 01-.98.804H9.32a1 1 0 01-.98-.804l-.295-1.473a6.957 6.957 0 01-1.416-.587l-1.25.834a1 1 0 01-1.262-.125l-.962-.962a1 1 0 01-.125-1.262l.834-1.25a6.957 6.957 0 01-.587-1.416l-1.473-.294A1 1 0 011 10.68V9.32a1 1 0 01.804-.98l1.473-.295c.144-.497.342-.971.587-1.416l-.834-1.25a1 1 0 01.125-1.262l.962-.962A1 1 0 015.38 3.03l1.25.834a6.957 6.957 0 011.416-.587l.294-1.473zM13 10a3 3 0 11-6 0 3 3 0 016 0z">
    </path>
  </symbol>

  <symbol id="subscriptions" viewBox="0 0 512 512">
    <g>
      <path
        style="fill:none;stroke:#000000;stroke-width:15;stroke-linecap:round;stroke-linejoin:round;stroke-miterlimit:10;"
        d="&#10;&#9;&#9;M114.577,357.016H62.049c-4.463,0-8.081,3.618-8.081,8.081v14.142c0,4.463,3.618,8.081,8.081,8.081h52.528" />
      <path
        style="fill:none;stroke:#000000;stroke-width:15;stroke-linecap:round;stroke-linejoin:round;stroke-miterlimit:10;"
        d="&#10;&#9;&#9;M114.577,175.187H55.988c-4.463,0-8.081,3.618-8.081,8.081v14.142c0,4.463,3.618,8.081,8.081,8.081h58.589" />

      <line
        style="fill:none;stroke:#000000;stroke-width:15;stroke-linecap:round;stroke-linejoin:round;stroke-miterlimit:10;"
        x1="114.577" y1="235.797" x2="37.805" y2="235.797" />

      <line
        style="fill:none;stroke:#000000;stroke-width:15;stroke-linecap:round;stroke-linejoin:round;stroke-miterlimit:10;"
        x1="114.577" y1="276.203" x2="37.805" y2="276.203" />

      <line
        style="fill:none;stroke:#000000;stroke-width:15;stroke-linecap:round;stroke-linejoin:round;stroke-miterlimit:10;"
        x1="114.577" y1="316.61" x2="37.805" y2="316.61" />
      <path
        style="fill:none;stroke:#000000;stroke-width:15;stroke-linecap:round;stroke-linejoin:round;stroke-miterlimit:10;"
        d="&#10;&#9;&#9;M7.5,183.56v234.07c0,11.15,9.05,20.2,20.2,20.2h86.88" />
      <path
        style="fill:none;stroke:#000000;stroke-width:15;stroke-linecap:round;stroke-linejoin:round;stroke-miterlimit:10;"
        d="&#10;&#9;&#9;M7.5,148.56V94.37c0-11.15,9.05-20.2,20.2-20.2h86.88" />
      <path
        style="fill:none;stroke:#000000;stroke-width:15;stroke-linecap:round;stroke-linejoin:round;stroke-miterlimit:10;"
        d="&#10;&#9;&#9;M397.423,357.016h52.528c4.463,0,8.081,3.618,8.081,8.081v14.142c0,4.463-3.618,8.081-8.081,8.081h-52.528" />

      <polygon
        style="fill:none;stroke:#000000;stroke-width:15;stroke-linecap:round;stroke-linejoin:round;stroke-miterlimit:10;"
        points="&#10;&#9;&#9;273.509,98.415 256,74.171 238.491,98.415 205.492,84.272 215.594,144.882 296.406,144.882 306.508,84.272 &#9;" />

      <line
        style="fill:none;stroke:#000000;stroke-width:15;stroke-linecap:round;stroke-linejoin:round;stroke-miterlimit:10;"
        x1="205.492" y1="144.882" x2="306.508" y2="144.882" />

      <line
        style="fill:none;stroke:#000000;stroke-width:15;stroke-linecap:round;stroke-linejoin:round;stroke-miterlimit:10;"
        x1="256" y1="119.176" x2="256" y2="119.176" />
      <path
        style="fill:none;stroke:#000000;stroke-width:15;stroke-linecap:round;stroke-linejoin:round;stroke-miterlimit:10;"
        d="&#10;&#9;&#9;M397.423,175.187h58.589c4.463,0,8.081,3.618,8.081,8.081v14.142c0,4.463-3.618,8.081-8.081,8.081h-58.589" />
      <path
        style="fill:none;stroke:#000000;stroke-width:15;stroke-linecap:round;stroke-linejoin:round;stroke-miterlimit:10;"
        d="&#10;&#9;&#9;M144.882,197.411v-14.142c0-4.463,3.618-8.081,8.081-8.081h206.073c4.463,0,8.081,3.618,8.081,8.081v14.142&#10;&#9;&#9;c0,4.463-3.618,8.081-8.081,8.081H152.963C148.5,205.492,144.882,201.874,144.882,197.411z" />

      <line
        style="fill:none;stroke:#000000;stroke-width:15;stroke-linecap:round;stroke-linejoin:round;stroke-miterlimit:10;"
        x1="346.915" y1="245.898" x2="225.695" y2="245.898" />

      <line
        style="fill:none;stroke:#000000;stroke-width:15;stroke-linecap:round;stroke-linejoin:round;stroke-miterlimit:10;"
        x1="195.39" y1="245.898" x2="165.085" y2="245.898" />

      <line
        style="fill:none;stroke:#000000;stroke-width:15;stroke-linecap:round;stroke-linejoin:round;stroke-miterlimit:10;"
        x1="346.915" y1="286.305" x2="225.695" y2="286.305" />

      <line
        style="fill:none;stroke:#000000;stroke-width:15;stroke-linecap:round;stroke-linejoin:round;stroke-miterlimit:10;"
        x1="195.39" y1="286.305" x2="165.085" y2="286.305" />

      <line
        style="fill:none;stroke:#000000;stroke-width:15;stroke-linecap:round;stroke-linejoin:round;stroke-miterlimit:10;"
        x1="346.915" y1="326.711" x2="225.695" y2="326.711" />

      <line
        style="fill:none;stroke:#000000;stroke-width:15;stroke-linecap:round;stroke-linejoin:round;stroke-miterlimit:10;"
        x1="195.39" y1="326.711" x2="165.085" y2="326.711" />

      <line
        style="fill:none;stroke:#000000;stroke-width:15;stroke-linecap:round;stroke-linejoin:round;stroke-miterlimit:10;"
        x1="346.915" y1="367.118" x2="225.695" y2="367.118" />

      <line
        style="fill:none;stroke:#000000;stroke-width:15;stroke-linecap:round;stroke-linejoin:round;stroke-miterlimit:10;"
        x1="474.195" y1="235.797" x2="397.423" y2="235.797" />

      <line
        style="fill:none;stroke:#000000;stroke-width:15;stroke-linecap:round;stroke-linejoin:round;stroke-miterlimit:10;"
        x1="474.195" y1="276.203" x2="397.423" y2="276.203" />

      <line
        style="fill:none;stroke:#000000;stroke-width:15;stroke-linecap:round;stroke-linejoin:round;stroke-miterlimit:10;"
        x1="474.195" y1="316.61" x2="397.423" y2="316.61" />

      <line
        style="fill:none;stroke:#000000;stroke-width:15;stroke-linecap:round;stroke-linejoin:round;stroke-miterlimit:10;"
        x1="195.39" y1="367.118" x2="165.085" y2="367.118" />
      <path
        style="fill:none;stroke:#000000;stroke-width:15;stroke-linecap:round;stroke-linejoin:round;stroke-miterlimit:10;"
        d="&#10;&#9;&#9;M195.39,429.748v-14.142c0-4.463,3.618-8.081,8.081-8.081h105.057c4.463,0,8.081,3.618,8.081,8.081v14.142&#10;&#9;&#9;c0,4.463-3.618,8.081-8.081,8.081H203.472C199.008,437.829,195.39,434.211,195.39,429.748z" />
      <path
        style="fill:none;stroke:#000000;stroke-width:15;stroke-linecap:round;stroke-linejoin:round;stroke-miterlimit:10;"
        d="&#10;&#9;&#9;M200.93,33.76h176.29c11.16,0,20.2,9.05,20.2,20.21v404.06c0,11.16-9.04,20.21-20.2,20.21H134.78c-11.16,0-20.2-9.05-20.2-20.21&#10;&#9;&#9;V53.97c0-11.16,9.04-20.21,20.2-20.21h31.15" />
      <path
        style="fill:none;stroke:#000000;stroke-width:15;stroke-linecap:round;stroke-linejoin:round;stroke-miterlimit:10;"
        d="&#10;&#9;&#9;M504.5,369.71v47.92c0,11.15-9.05,20.2-20.2,20.2h-86.88" />
      <path
        style="fill:none;stroke:#000000;stroke-width:15;stroke-linecap:round;stroke-linejoin:round;stroke-miterlimit:10;"
        d="&#10;&#9;&#9;M397.42,74.17h86.88c11.15,0,20.2,9.05,20.2,20.2v240.34" />
    </g>
  </symbol>

  <symbol id="success-sm" aria-hidden="true" viewBox="0 0 20 20">
    <path
      d="M10 .5a9.5 9.5 0 1 0 9.5 9.5A9.51 9.51 0 0 0 10 .5Zm3.707 8.207-4 4a1 1 0 0 1-1.414 0l-2-2a1 1 0 0 1 1.414-1.414L9 10.586l3.293-3.293a1 1 0 0 1 1.414 1.414Z" />
  </symbol>

  <symbol id="success" viewBox="0 0 512 512">
    <path clip-rule="evenodd"
      d="m256 0c-141.2 0-256 114.8-256 256s114.8 256 256 256 256-114.8 256-256-114.8-256-256-256z" fill="#4bae4f"
      fill-rule="evenodd" />
    <path
      d="m206.7 373.1c-32.7-32.7-65.2-65.7-98-98.4-3.6-3.6-3.6-9.6 0-13.2l37.7-37.7c3.6-3.6 9.6-3.6 13.2 0l53.9 53.9 138.6-138.7c3.7-3.6 9.6-3.6 13.3 0l37.8 37.8c3.7 3.7 3.7 9.6 0 13.2l-183.3 183.1c-3.6 3.7-9.5 3.7-13.2 0z"
      fill="#fff" />
  </symbol>

  <symbol id="taka" viewBox="0 0 512 512">
    <g id="Currency">
      <path id="Taka"
        d="m198.4 72.3c7.9 11.6 15 30.3 15 57.9v89.6h23.9l40.1 40.9h-64v116c0 9.1 3.4 17.3 10.2 24.7s17.9 11.1 33.3 11.1c19.9 0 40.9-11.1 63.1-33.3 22.7-22.7 34.7-46 35.8-69.9l-10.2.9c-36.4 0-54.6-19.3-54.6-58 0-13.1 4.3-24.7 12.8-35 8.5-10.2 22.7-15.4 42.6-15.4 21 0 38.7 9.1 52.9 27.3 14.8 18.2 22.2 40.4 22.2 66.5 0 38.7-16.5 75.6-49.5 110.9-32.4 35.2-94.4 52.9-116 52.9-34.6 0-47.9-6.8-59.2-14.5-11.3-7.8-26.1-26.2-26.1-49.4v-134.8h-40.9l-39.2-40.9h80.2v-81c0-18.1-18.1-28-29.9-29-7.2-.6-15.1 1.4-17.9 4.3-5.1-8.5-10-18.8-14.5-30.7 0 0 4-14.4 17.1-23 9-5.9 17.5-7.7 30.7-7.7 25.1-.1 36.7 11.7 42.1 19.6z" />
    </g>
  </symbol>

  <symbol id="toggle-sidebar-mobile-close" viewBox="0 0 20 20">
    <path fill-rule="evenodd"
      d="M4.293 4.293a1 1 0 011.414 0L10 8.586l4.293-4.293a1 1 0 111.414 1.414L11.414 10l4.293 4.293a1 1 0 01-1.414 1.414L10 11.414l-4.293 4.293a1 1 0 01-1.414-1.414L8.586 10 4.293 5.707a1 1 0 010-1.414z"
      clip-rule="evenodd"></path>
  </symbol>

  <symbol id="toggel-sidebar-mobile-hamburger" viewBox="0 0 20 20">
    <path fill-rule="evenodd"
      d="M3 5a1 1 0 011-1h12a1 1 0 110 2H4a1 1 0 01-1-1zM3 10a1 1 0 011-1h6a1 1 0 110 2H4a1 1 0 01-1-1zM3 15a1 1 0 011-1h12a1 1 0 110 2H4a1 1 0 01-1-1z"
      clip-rule="evenodd"></path>
  </symbol>

  <symbol id="total-installment" viewBox="0 0 128 128">
    <path
      d="M86,49c-14.44,0-26,6-26,12V99.66c0,7,11.18,12.34,26,12.34s26-5.31,26-12.34V61C112,55,100.44,49,86,49Zm22,31.5c0,3.94-9.41,8.34-22,8.34s-22-4.4-22-8.34V68.1c4.53,3.41,12.51,5.58,22,5.58s17.47-2.17,22-5.58ZM86,53c12.59,0,22,4.4,22,8.34s-9.41,8.34-22,8.34-22-4.4-22-8.34S73.41,53,86,53Zm0,55c-12.59,0-22-4.4-22-8.34V87.26c4.53,3.41,12.51,5.58,22,5.58s17.47-2.17,22-5.58v12.4C108,103.6,98.59,108,86,108Z" />
    <path
      d="M59.86,35a7.77,7.77,0,0,1,6,3.08,12.24,12.24,0,0,1,2.6,6.52,2,2,0,0,0,2.2,1.78,2,2,0,0,0,1.78-2.19A16.35,16.35,0,0,0,69,35.54a11.38,11.38,0,0,0-18.19,0,17.08,17.08,0,0,0,0,20.91,20.56,20.56,0,0,0,2.1,2.26,2.06,2.06,0,0,0,1.35.52,2,2,0,0,0,1.48-.66,2,2,0,0,0-.14-2.83,15.47,15.47,0,0,1-1.69-1.82,13.08,13.08,0,0,1,0-15.84A7.78,7.78,0,0,1,59.86,35Z" />
    <path
      d="M54,68H34.83A16.91,16.91,0,0,0,20,53.13v-14A17,17,0,0,0,34.91,24H84.37A17.69,17.69,0,0,0,100,39.88V45a2,2,0,0,0,4,0V22a2,2,0,0,0-2-2H18a2,2,0,0,0-2,2V70a2,2,0,0,0,2,2H54a2,2,0,0,0,0-4Zm46-32.16A13.67,13.67,0,0,1,88.4,24H100ZM30.87,24A12.93,12.93,0,0,1,20,35.12V24ZM20,57.17A12.86,12.86,0,0,1,30.79,68H20Z" />
    <path d="M54,80H18a2,2,0,0,0,0,4H54a2,2,0,0,0,0-4Z" />
    <path d="M54,92H18a2,2,0,0,0,0,4H54a2,2,0,0,0,0-4Z" />
  </symbol>

  <symbol id="user" viewBox="0 0 512 512">
    <path
      d="m437.019531 74.980469c-48.351562-48.351563-112.640625-74.980469-181.019531-74.980469s-132.667969 26.628906-181.019531 74.980469c-48.351563 48.351562-74.980469 112.640625-74.980469 181.019531s26.628906 132.667969 74.980469 181.019531c48.351562 48.351563 112.640625 74.980469 181.019531 74.980469s132.667969-26.628906 181.019531-74.980469c48.351563-48.351562 74.980469-112.640625 74.980469-181.019531s-26.628906-132.667969-74.980469-181.019531zm-325.914062 354.316406c8.453125-72.734375 70.988281-128.890625 144.894531-128.890625 38.960938 0 75.597656 15.179688 103.15625 42.734375 23.28125 23.285156 37.964844 53.6875 41.742188 86.152344-39.257813 32.878906-89.804688 52.707031-144.898438 52.707031s-105.636719-19.824219-144.894531-52.703125zm144.894531-159.789063c-42.871094 0-77.753906-34.882812-77.753906-77.753906 0-42.875 34.882812-77.753906 77.753906-77.753906s77.753906 34.878906 77.753906 77.753906c0 42.871094-34.882812 77.753906-77.753906 77.753906zm170.71875 134.425782c-7.644531-30.820313-23.585938-59.238282-46.351562-82.003906-18.4375-18.4375-40.25-32.269532-64.039063-40.9375 28.597656-19.394532 47.425781-52.160157 47.425781-89.238282 0-59.414062-48.339844-107.753906-107.753906-107.753906s-107.753906 48.339844-107.753906 107.753906c0 37.097656 18.84375 69.875 47.464844 89.265625-21.886719 7.976563-42.140626 20.308594-59.566407 36.542969-25.234375 23.5-42.757812 53.464844-50.882812 86.347656-34.410157-39.667968-55.261719-91.398437-55.261719-147.910156 0-124.617188 101.382812-226 226-226s226 101.382812 226 226c0 56.523438-20.859375 108.265625-55.28125 147.933594zm0 0" />
  </symbol>

  <symbol id="users" viewBox="0 0 512 512">
    <g>
      <g>
        <path d="M437.76,195.421c14.561-14.261,23.04-33.742,23.04-54.621c0-42.346-34.45-76.8-76.8-76.8
			c-13.992,0-27.758,3.846-39.825,11.125c-4.033,2.438-5.333,7.679-2.9,11.717c2.433,4.038,7.683,5.325,11.717,2.9
			c9.408-5.675,20.125-8.675,31.008-8.675c32.933,0,59.733,26.796,59.733,59.733c0,20.283-10.158,38.979-27.208,50.037
			c-14.317,9.392-32.467,12.1-49.042,7.379c-4.483-1.292-9.25,1.325-10.55,5.858c-1.292,4.533,1.333,9.254,5.867,10.55
			c6.9,1.975,14.033,2.975,21.2,2.975c13.418,0,26.388-3.66,37.903-10.27c43.806,15.873,73.03,57.232,73.03,104.137v42.667h-77.812
			c-6.044-56.996-41.902-106.872-94.205-130.555c16.644-16.946,26.95-40.138,26.95-65.711C349.867,106.108,307.758,64,256,64
			c-51.758,0-93.867,42.108-93.867,93.867c0,25.581,10.312,48.78,26.965,65.728c-17.602,7.997-33.927,19.185-47.773,32.952
			c-26.543,26.619-42.695,60.784-46.529,97.588H17.067v-42.667c0-29.55,11.542-57.412,32.467-78.425
			c11.519-11.446,25.543-20.178,40.643-25.666C101.694,213.96,114.625,217.6,128,217.6c7.167,0,14.3-1,21.2-2.975
			c4.533-1.296,7.158-6.017,5.867-10.55c-1.3-4.533-6.067-7.146-10.55-5.858c-16.567,4.729-34.708,2.025-49.083-7.4
			c-17.008-11.038-27.167-29.733-27.167-50.017c0-32.937,26.8-59.733,59.733-59.733c10.883,0,21.6,3,31.008,8.675
			c4.05,2.425,9.275,1.125,11.717-2.9c2.433-4.037,1.133-9.279-2.9-11.717C155.758,67.846,141.992,64,128,64
			c-42.35,0-76.8,34.454-76.8,76.8c0,20.863,8.465,40.329,22.984,54.577c-13.533,6.291-26.032,14.976-36.717,25.59
			C13.308,245.233,0,277.371,0,311.467v51.2c0,4.713,3.817,8.533,8.533,8.533h85.333v68.267c0,4.713,3.817,8.533,8.533,8.533h307.2
			c4.717,0,8.533-3.821,8.533-8.533V371.2h85.333c4.717,0,8.533-3.821,8.533-8.533v-51.2
			C512,261.012,482.678,216.128,437.76,195.421z M179.2,157.867c0-42.346,34.45-76.8,76.8-76.8c42.35,0,76.8,34.454,76.8,76.8
			s-34.45,76.8-76.8,76.8C213.65,234.667,179.2,200.212,179.2,157.867z M401.067,430.933H110.933V371.2
			c0-38.692,15.083-75.129,42.45-102.579c14.417-14.34,31.895-25.463,50.634-32.659c14.895,9.947,32.767,15.771,51.983,15.771
			c19.248,0,37.151-5.841,52.06-15.818c55.778,21.431,93.007,75.205,93.007,135.285V430.933z" />
      </g>
    </g>
  </symbol>
  <symbol id="warning" stroke="red" viewBox="0 0 24 24">
    <path stroke-linecap="round" stroke-linejoin="round" stroke-width="2"
      d="M12 8v4m0 4h.01M21 12a9 9 0 11-18 0 9 9 0 0118 0z"></path>
  </symbol>






  <symbol id="total">

  </symbol>
  <symbol id="total">

  </symbol>
  <symbol id="total">

  </symbol>
  <symbol id="total">

  </symbol>

</svg>
